<svg width="638" height="638" viewBox="0 0 638 638" fill="none" xmlns="http://www.w3.org/2000/svg">
<path d="M574.072 508.473H531.811V508.792H574.072V508.473Z" fill="#EBEBEB"/>
<path d="M422.637 511.944H411.548V512.263H422.637V511.944Z" fill="#EBEBEB"/>
<path d="M530.535 496.632H506.049V496.951H530.535V496.632Z" fill="#EBEBEB"/>
<path d="M122.049 498.775H66.939V499.094H122.049V498.775Z" fill="#EBEBEB"/>
<path d="M141.496 498.775H133.419V499.094H141.496V498.775Z" fill="#EBEBEB"/>
<path d="M287.291 504.16H167.756V504.479H287.291V504.16Z" fill="#EBEBEB"/>
<path d="M302.412 431.033H56.0292C54.099 431.029 52.2491 430.26 50.8854 428.894C49.5218 427.528 48.7559 425.677 48.756 423.747V77.4021C48.7728 75.483 49.546 73.6481 50.9079 72.2958C52.2697 70.9436 54.11 70.1832 56.0292 70.1799H302.412C304.344 70.1799 306.198 70.9476 307.564 72.3139C308.93 73.6803 309.698 75.5335 309.698 77.4659V423.747C309.698 425.679 308.93 427.532 307.564 428.899C306.198 430.265 304.344 431.033 302.412 431.033V431.033ZM56.0292 70.4351C54.1836 70.4385 52.4148 71.174 51.111 72.4802C49.8072 73.7864 49.0749 75.5565 49.075 77.4021V423.747C49.0749 425.592 49.8072 427.362 51.111 428.669C52.4148 429.975 54.1836 430.71 56.0292 430.714H302.412C304.259 430.71 306.029 429.975 307.335 428.669C308.64 427.364 309.376 425.594 309.379 423.747V77.4021C309.376 75.5554 308.64 73.7853 307.335 72.4794C306.029 71.1736 304.259 70.4385 302.412 70.4351H56.0292Z" fill="#EBEBEB"/>
<path d="M578.424 431.033H332.028C330.097 431.029 328.245 430.261 326.88 428.895C325.514 427.529 324.745 425.678 324.742 423.747V77.4021C324.762 75.4819 325.538 73.6469 326.902 72.295C328.266 70.9431 330.108 70.1832 332.028 70.1799H578.424C580.34 70.1866 582.178 70.9484 583.537 72.3003C584.896 73.6522 585.667 75.4852 585.684 77.4021V423.747C585.684 425.675 584.92 427.524 583.559 428.89C582.198 430.255 580.351 431.026 578.424 431.033V431.033ZM332.028 70.4351C330.181 70.4385 328.411 71.1736 327.105 72.4794C325.799 73.7853 325.064 75.5554 325.061 77.4021V423.747C325.064 425.594 325.799 427.364 327.105 428.669C328.411 429.975 330.181 430.71 332.028 430.714H578.424C580.27 430.71 582.04 429.975 583.346 428.669C584.652 427.364 585.387 425.594 585.39 423.747V77.4021C585.387 75.5554 584.652 73.7853 583.346 72.4794C582.04 71.1736 580.27 70.4385 578.424 70.4351H332.028Z" fill="#EBEBEB"/>
<path d="M638 487.942H0V488.261H638V487.942Z" fill="#EBEBEB"/>
<path d="M90.226 256.999H119.204V203.216H90.226V256.999Z" fill="#EBEBEB"/>
<path d="M98.3158 256.999H127.294V203.216H98.3158V256.999Z" fill="#F5F5F5"/>
<path d="M131.083 191.489H87.8526V203.216H131.083V191.489Z" fill="#F5F5F5"/>
<path d="M94.5133 191.489H87.8526V203.216H94.5133V191.489Z" fill="#EBEBEB"/>
<path d="M64.1573 430.548H260.661V284.688H64.1573L64.1573 430.548Z" fill="#E6E6E6"/>
<path d="M160.75 173.523L271.916 284.688H49.5853L160.75 173.523Z" fill="#F5F5F5"/>
<path d="M49.5854 297.525H271.916V284.701H49.5854V297.525Z" fill="#E0E0E0"/>
<path d="M185.211 309.826H129.91V365.128H185.211V309.826Z" fill="#E0E0E0"/>
<path d="M187.24 309.826H131.938V365.128H187.24V309.826Z" fill="#F0F0F0"/>
<path d="M184.446 312.071H134.631V361.886H184.446V312.071Z" fill="white"/>
<path d="M184.433 312.071H182.685V361.886H184.433V312.071Z" fill="#E0E0E0"/>
<path d="M134.478 338.51V340.258H182.876V338.51H134.478Z" fill="#E0E0E0"/>
<path d="M184.433 335.562H133.687V338.51H184.433V335.562Z" fill="#F0F0F0"/>
<path d="M363.099 394.59L363.188 395.292L365.229 412.084L365.344 413.028L367.373 429.757L367.437 430.254H397.487H423.3H450.351L450.364 430.14L452.38 413.028L452.495 412.02L454.46 395.292L454.588 394.271L456.553 377.556L456.668 376.535L458.237 363.264L459.156 355.417H358.326L359.271 363.264L360.955 377.032L361.019 377.556L363.099 394.59Z" fill="#F0F0F0"/>
<path d="M409.596 317.392L352.546 355.417H466.646L409.596 317.392Z" fill="#E6E6E6"/>
<path d="M465.574 363.264H353.618L352.546 355.417H466.646L465.574 363.264Z" fill="#E0E0E0"/>
<path d="M426.184 398.354C426.184 415.976 425.125 423.632 423.326 430.254H397.487C395.688 423.619 394.629 415.963 394.629 398.354C394.569 396.246 394.932 394.148 395.697 392.182C396.463 390.217 397.614 388.426 399.084 386.913C400.554 385.401 402.312 384.199 404.255 383.378C406.197 382.557 408.285 382.134 410.393 382.134C412.502 382.134 414.59 382.557 416.532 383.378C418.475 384.199 420.233 385.401 421.703 386.913C423.173 388.426 424.324 390.217 425.09 392.182C425.855 394.148 426.218 396.246 426.158 398.354H426.184Z" fill="#E0E0E0"/>
<path d="M360.955 377.032V376.535H456.668L456.553 377.555H361.019L360.955 377.032Z" fill="#E0E0E0"/>
<path d="M363.099 394.59V394.271H395.164H425.623H454.588L454.46 395.292H425.852H394.935H363.188L363.099 394.59Z" fill="#E0E0E0"/>
<path d="M365.229 412.084V412.021H394.922H425.865H452.495L452.38 413.029H425.814H394.973H365.344L365.229 412.084Z" fill="#E0E0E0"/>
<path d="M450.364 429.757H367.36V430.778H450.364V429.757Z" fill="#E0E0E0"/>
<path d="M427.281 383.629L425.814 383.17C415.379 379.902 404.173 380.045 393.825 383.578L389.474 370.754C402.535 366.301 416.676 366.122 429.846 370.244L431.301 370.703L427.281 383.629Z" fill="#E0E0E0"/>
<path d="M427.281 381.524L425.814 381.078C415.381 377.799 404.174 377.938 393.825 381.473L389.474 368.649C402.536 364.194 416.678 364.02 429.846 368.152L431.301 368.598L427.281 381.524Z" fill="#FAFAFA"/>
<path d="M452.827 132.704H480.248C481.217 132.711 482.165 132.995 482.979 133.521V133.521C491.554 141.878 501.596 137.221 506.062 134.388C507.76 133.298 509.734 132.714 511.753 132.704H542.3C553.784 132.704 556.527 116.665 545.707 112.888L545.286 112.747C557.267 102.769 530.982 81.7405 502.451 110.859C504.671 101.148 479.304 104.657 471.546 117.915C468.79 109.187 444.597 124.308 452.827 132.704Z" fill="#E6E6E6"/>
<path d="M69.0827 164.349H84.216L85.492 164.91C88.8879 166.429 92.581 167.167 96.2997 167.069C100.018 166.972 103.668 166.043 106.98 164.349H119.651C119.651 164.349 131.517 159.883 129.973 148.054C128.429 136.226 110.54 146.089 110.54 146.089C110.54 146.089 115.976 129.578 98.6348 134.261C93.7455 135.507 89.3326 138.169 85.9485 141.912C82.5643 145.654 80.3594 150.312 79.6097 155.302C79.6097 155.302 56.8331 151.333 69.0827 164.349Z" fill="#EBEBEB"/>
<path d="M551.015 197.359C551.297 197.359 551.575 197.414 551.835 197.522C552.096 197.63 552.332 197.788 552.531 197.987C552.73 198.186 552.888 198.422 552.996 198.682C553.103 198.942 553.159 199.221 553.159 199.503V457.165H548.871V199.413C548.891 198.859 549.126 198.335 549.527 197.951C549.927 197.568 550.461 197.355 551.015 197.359V197.359Z" fill="#E0E0E0"/>
<path d="M580.58 233.508C580.58 240.906 577.641 248.001 572.41 253.232C567.179 258.463 560.084 261.401 552.687 261.401C552.113 261.401 551.538 261.401 550.977 261.338C547.325 261.117 543.753 260.174 540.468 258.565C537.182 256.955 534.249 254.71 531.837 251.959C530.983 250.999 530.199 249.98 529.489 248.909C526.789 244.832 525.209 240.117 524.908 235.237C524.606 230.356 525.593 225.482 527.77 221.104C529.947 216.725 533.237 212.996 537.31 210.291C541.384 207.586 546.097 206 550.977 205.691V205.691C551.538 205.691 552.113 205.691 552.687 205.691C558.876 205.682 564.89 207.744 569.772 211.548C570.794 212.323 571.754 213.176 572.643 214.1C577.729 219.28 580.578 226.249 580.58 233.508Z" fill="#E0E0E0"/>
<path d="M577.173 233.508C577.177 240.605 574.472 247.437 569.611 252.608C564.75 257.78 558.099 260.902 551.015 261.337C550.441 261.337 549.867 261.401 549.293 261.401C542.099 261.412 535.183 258.631 529.999 253.643C529.087 252.761 528.234 251.819 527.447 250.823C524.192 246.714 522.16 241.771 521.586 236.56C521.012 231.349 521.919 226.082 524.203 221.363C526.486 216.644 530.054 212.665 534.496 209.882C538.939 207.098 544.076 205.624 549.318 205.627C549.892 205.627 550.466 205.627 551.041 205.627C557.434 206.008 563.499 208.592 568.203 212.939C569.147 213.795 570.025 214.721 570.831 215.708C574.959 220.719 577.202 227.016 577.173 233.508V233.508Z" fill="#FAFAFA"/>
<path d="M574.659 216.014L572.784 217.749L533.802 253.924L531.977 255.608C531.064 254.726 530.212 253.784 529.425 252.788L531.48 250.874L570.181 214.968L571.814 213.449C572.827 214.229 573.779 215.087 574.659 216.014V216.014Z" fill="#E0E0E0"/>
<path d="M561.682 231.581C561.496 232.252 561.189 232.883 560.777 233.444C559.234 235.189 557.172 236.392 554.894 236.877C551.96 237.708 548.901 238.01 545.86 237.77C544.06 237.688 542.308 237.167 540.756 236.251C539.874 235.688 539.153 234.905 538.663 233.98C538.307 233.3 538.127 232.541 538.14 231.773C538.163 230.916 538.465 230.09 538.999 229.42C539.533 228.751 540.271 228.273 541.101 228.06C542.632 232.321 549.777 231.518 553.172 230.19C555.28 229.46 557.019 227.935 558.02 225.941C559.018 226.033 559.961 226.44 560.713 227.103C561.263 227.693 561.643 228.42 561.814 229.209C561.984 229.997 561.939 230.817 561.682 231.581Z" fill="#E0E0E0"/>
<path d="M558.301 223.912C558.224 224.231 558.122 224.542 557.995 224.844C556.998 226.841 555.257 228.367 553.146 229.093C549.752 230.433 542.606 231.237 541.075 226.962C540.95 226.598 540.865 226.222 540.82 225.839C540.748 225.154 540.831 224.46 541.063 223.811C541.295 223.162 541.67 222.573 542.16 222.088C543.484 220.966 545.136 220.303 546.868 220.199C548.585 220.117 550.28 219.777 551.895 219.191C552.701 218.883 553.394 218.34 553.886 217.632C554.377 216.924 554.644 216.085 554.652 215.223C555.75 216.43 556.709 217.757 557.51 219.179C558.299 220.623 558.578 222.29 558.301 223.912V223.912Z" fill="#E0E0E0"/>
<path d="M563.673 235.6C563.656 236.636 563.366 237.648 562.831 238.535C561.099 241.448 558.319 243.589 555.06 244.52C551.825 245.44 548.426 245.631 545.107 245.081C543.321 244.896 541.588 244.367 540.003 243.524C539.205 243.098 538.506 242.506 537.954 241.789C537.402 241.072 537.009 240.246 536.8 239.365C536.8 237.846 536.902 235.664 538.676 235.065C539.162 235.992 539.884 236.776 540.769 237.336C542.32 238.251 544.073 238.773 545.873 238.854C548.913 239.105 551.973 238.807 554.907 237.974C557.188 237.489 559.251 236.281 560.789 234.529C561.202 233.972 561.509 233.345 561.695 232.678C561.925 232.745 562.144 232.844 562.346 232.972C562.769 233.265 563.111 233.659 563.343 234.118C563.575 234.577 563.688 235.087 563.673 235.6V235.6Z" fill="#E0E0E0"/>
<path d="M319 544.865C455.637 544.865 566.404 538.398 566.404 530.42C566.404 522.443 455.637 515.976 319 515.976C182.363 515.976 71.5964 522.443 71.5964 530.42C71.5964 538.398 182.363 544.865 319 544.865Z" fill="#F5F5F5"/>
<path d="M486.832 362.844L483.744 362.091C480.44 361.396 477.22 360.352 474.136 358.977L473.728 358.786C470.704 357.318 466.927 355.494 466.072 349.127C466.07 348.712 465.92 348.311 465.649 347.997C465.377 347.684 465.002 347.478 464.592 347.417C436.43 346.064 414.228 330.433 415.083 312.569C415.938 294.705 439.569 281.269 467.705 282.609C495.841 283.949 518.056 299.618 517.188 317.482C516.64 328.889 506.534 339.174 490.801 344.176C490.354 344.354 489.525 344.584 488.389 344.878C484.472 345.911 477.16 347.838 475.323 351.653C474.417 353.529 475.872 355.953 477.709 357.28C478.687 357.942 479.72 358.519 480.797 359.003C481.995 359.554 483.143 360.207 484.229 360.955L486.832 362.844ZM463.864 283.732C438.153 283.732 417.239 296.198 416.448 312.556C415.619 329.719 437.285 344.763 464.732 346.09C465.446 346.154 466.113 346.475 466.608 346.994C467.103 347.513 467.393 348.193 467.424 348.91C468.139 354.588 471.431 356.17 474.328 357.574L474.736 357.765C476.114 358.432 477.543 358.987 479.01 359.424C478.327 359.082 477.67 358.69 477.045 358.25C474.749 356.578 473.052 353.567 474.264 351.028C476.356 346.689 484.038 344.648 488.159 343.576C489.206 343.295 490.035 343.078 490.456 342.912C505.768 338 515.479 328.226 515.976 317.392C516.806 300.23 495.152 285.186 467.705 283.859C466.404 283.821 465.102 283.795 463.826 283.795L463.864 283.732Z" fill="#00BA88"/>
<path d="M468.7 331.492L465.076 334.133C465.052 334.162 465.022 334.183 464.987 334.197L461.478 331.262C450.543 321.756 438.115 311.306 447.889 302.769C454.664 296.836 462.524 302.361 466.493 305.947C470.691 302.629 479.508 293.187 486.909 304.671C493.136 314.202 480.223 322.726 468.7 331.492Z" fill="#00BA88"/>
<path opacity="0.5" d="M448.425 306.419C448.724 306.434 449.005 306.565 449.209 306.785C449.413 307.005 449.523 307.295 449.515 307.595C449.508 307.894 449.384 308.179 449.169 308.388C448.955 308.597 448.667 308.714 448.367 308.714C448.068 308.714 447.78 308.597 447.565 308.388C447.351 308.179 447.227 307.894 447.219 307.595C447.212 307.295 447.322 307.005 447.525 306.785C447.729 306.565 448.011 306.434 448.31 306.419H448.425Z" fill="white"/>
<path opacity="0.5" d="M452.725 319.332C449.701 317.367 452.725 310.502 448.897 309.928C446.166 311.076 448.986 316.882 452.725 319.332Z" fill="white"/>
<path d="M585.709 468.407H49.5853V488.261H585.709V468.407Z" fill="#00BA88"/>
<g opacity="0.7">
<path opacity="0.7" d="M585.709 468.407H49.5853V488.261H585.709V468.407Z" fill="white"/>
</g>
<path d="M78.4995 468.407H77.2235V489.218H78.4995V468.407Z" fill="white"/>
<path d="M198.418 468.407H197.142V489.218H198.418V468.407Z" fill="white"/>
<path d="M318.336 468.407H317.06V489.218H318.336V468.407Z" fill="white"/>
<path d="M438.255 468.407H436.979V489.218H438.255V468.407Z" fill="white"/>
<path d="M558.173 468.407H556.897V489.218H558.173V468.407Z" fill="white"/>
<path d="M426.184 136.443C403.216 112.199 374.289 103.943 353.12 112.99C350.076 114.296 346.714 114.671 343.457 114.067C340.2 113.463 337.195 111.907 334.822 109.596C309.188 84.854 267.666 81.9192 250.44 105.27C248.514 107.885 246.86 110.69 245.502 113.641C243.294 118.495 239.755 122.623 235.294 125.546C232.262 127.545 229.609 130.069 227.46 132.997C221.998 140.411 219.625 150.096 220.046 160.483C220.134 161.973 219.773 163.456 219.012 164.741C218.25 166.026 217.122 167.053 215.772 167.692C211.059 169.821 206.982 173.141 203.943 177.326C189.996 196.236 196.147 229.922 217.698 252.61C236.838 272.796 261.822 277.415 276.892 264.808C277.534 264.28 278.339 263.992 279.17 263.992C280.001 263.992 280.806 264.28 281.447 264.808C292.293 273.511 304.9 273.574 311.459 264.132C311.747 263.713 312.12 263.361 312.555 263.097C312.989 262.834 313.475 262.666 313.979 262.604C314.483 262.543 314.995 262.589 315.48 262.74C315.965 262.892 316.412 263.144 316.793 263.481C327.97 273.485 341.496 274.034 348.373 264.132C349.602 262.334 350.548 260.359 351.181 258.275C351.316 257.813 351.544 257.384 351.852 257.013C352.159 256.642 352.539 256.338 352.968 256.12C353.396 255.901 353.866 255.772 354.346 255.741C354.826 255.711 355.308 255.778 355.762 255.94C363.086 258.556 370.257 257.42 375.144 252.278C375.664 251.732 376.348 251.371 377.093 251.251C377.837 251.131 378.601 251.259 379.265 251.614C404.352 265 430.778 262.422 445.49 242.478C465.166 215.784 456.502 168.343 426.184 136.443Z" fill="#00BA88"/>
<path opacity="0.5" d="M426.184 136.443C403.216 112.199 374.289 103.943 353.12 112.99C350.076 114.296 346.714 114.671 343.457 114.067C340.2 113.463 337.195 111.907 334.822 109.596C309.188 84.854 267.666 81.9192 250.44 105.27C248.514 107.885 246.86 110.69 245.502 113.641C243.294 118.495 239.755 122.623 235.294 125.546C232.262 127.545 229.609 130.069 227.46 132.997C221.998 140.411 219.625 150.096 220.046 160.483C220.134 161.973 219.773 163.456 219.012 164.741C218.25 166.026 217.122 167.053 215.772 167.692C211.059 169.821 206.982 173.141 203.943 177.326C189.996 196.236 196.147 229.922 217.698 252.61C236.838 272.796 261.822 277.415 276.892 264.808C277.534 264.28 278.339 263.992 279.17 263.992C280.001 263.992 280.806 264.28 281.447 264.808C292.293 273.511 304.9 273.574 311.459 264.132C311.747 263.713 312.12 263.361 312.555 263.097C312.989 262.834 313.475 262.666 313.979 262.604C314.483 262.543 314.995 262.589 315.48 262.74C315.965 262.892 316.412 263.144 316.793 263.481C327.97 273.485 341.496 274.034 348.373 264.132C349.602 262.334 350.548 260.359 351.181 258.275C351.316 257.813 351.544 257.384 351.852 257.013C352.159 256.642 352.539 256.338 352.968 256.12C353.396 255.901 353.866 255.772 354.346 255.741C354.826 255.711 355.308 255.778 355.762 255.94C363.086 258.556 370.257 257.42 375.144 252.278C375.664 251.732 376.348 251.371 377.093 251.251C377.837 251.131 378.601 251.259 379.265 251.614C404.352 265 430.778 262.422 445.49 242.478C465.166 215.784 456.502 168.343 426.184 136.443Z" fill="white"/>
<path d="M268.215 275.82L288.733 294.884C287.087 321.769 285.747 383.693 285.747 383.693L278.449 426.988L342.759 427.575C342.759 427.575 339.837 391.018 339.837 389.027C339.837 387.036 327.409 316.997 327.409 316.997L323.019 277.773L356.195 267.654L362.256 250.173L386.628 236.379L398.533 218.094L393.939 216.971L380.784 233.865L365.472 237.196L372.043 221.641H364.681L346.408 257.752L322.828 262.512L325.903 211.893C303.254 219 301.059 206.049 301.059 206.049C301.059 206.049 293.289 274.174 290.545 281.932L278.41 275.82L265.28 255.047H259.436L268.215 275.82Z" fill="#00BA88"/>
<path opacity="0.7" d="M268.215 275.82L288.733 294.884C287.087 321.769 285.747 383.693 285.747 383.693L278.449 426.988L342.759 427.575C342.759 427.575 339.837 391.018 339.837 389.027C339.837 387.036 327.409 316.997 327.409 316.997L323.019 277.773L356.195 267.654L362.256 250.173L386.628 236.379L398.533 218.094L393.939 216.971L380.784 233.865L365.472 237.196L372.043 221.641H364.681L346.408 257.752L322.828 262.512L325.903 211.893C303.254 219 301.059 206.049 301.059 206.049C301.059 206.049 293.289 274.174 290.545 281.932L278.41 275.82L265.28 255.047H259.436L268.215 275.82Z" fill="white"/>
<path d="M278.321 404.39C277.147 402.744 276.458 401.736 276.458 401.736C276.458 401.736 291.668 401.519 302.042 405.474C312.416 409.43 330.484 425.954 342.453 421.973C347.48 420.368 352.37 418.362 357.076 415.976C359.645 414.6 362.315 413.422 365.064 412.454C367.538 411.66 370.056 411.008 372.605 410.502C372.605 410.502 377.198 412.428 366.761 424.652C356.323 436.877 346.345 442.606 333.891 440.909C327.154 439.99 309.162 434.21 299.043 427.166C294.692 424.142 288.835 418.145 284.778 413.258C285.518 413.117 287.33 414.087 289.473 412.658C288.106 412.697 286.746 412.449 285.48 411.93C284.214 411.412 283.071 410.634 282.124 409.647C282.685 409.884 283.303 409.954 283.903 409.848C284.503 409.741 285.06 409.463 285.505 409.047C284.051 408.809 282.662 408.272 281.425 407.471C280.189 406.669 279.132 405.62 278.321 404.39V404.39Z" fill="#00BA88"/>
<path opacity="0.1" d="M317.558 427.46L314.151 429.808C315.152 430.314 316.269 430.548 317.389 430.485C318.509 430.423 319.593 430.066 320.531 429.45L318.515 432.691L349.139 431.186C350.111 431.061 351.099 431.166 352.023 431.492C352.805 431.943 353.424 432.631 353.788 433.457C354.153 434.283 354.246 435.204 354.052 436.085L353.975 436.392C348.092 440.361 340.94 441.995 333.916 440.973C327.179 440.054 309.188 434.274 299.069 427.23C297.454 426.086 295.923 424.828 294.488 423.466C297.437 423.766 300.331 424.47 303.088 425.558C307.746 427.23 312.85 429.055 317.558 427.46Z" fill="black"/>
<path d="M346.957 443.499L341.458 474.213C341.23 475.498 340.579 476.671 339.607 477.543L338.331 478.742C336.4 480.48 335.193 482.88 334.95 485.467L331.466 522.305C331.327 523.769 331.682 525.238 332.475 526.478L336.06 532.066C336.198 532.277 336.388 532.449 336.611 532.565C336.835 532.681 337.084 532.738 337.336 532.73H348.986C349.253 532.727 349.514 532.651 349.74 532.509C349.967 532.368 350.15 532.167 350.27 531.929C350.39 531.69 350.442 531.423 350.42 531.157C350.398 530.891 350.304 530.636 350.147 530.42C347.845 527.138 344.902 524.356 341.496 522.241C335.282 518.745 369.657 465.74 369.657 465.74C369.657 465.74 358.632 423.632 346.957 443.499Z" fill="#00BA88"/>
<path opacity="0.1" d="M346.957 443.499L341.458 474.213C341.23 475.498 340.579 476.671 339.607 477.543L338.331 478.742C336.4 480.48 335.193 482.88 334.95 485.467L331.466 522.305C331.327 523.769 331.682 525.238 332.475 526.478L336.06 532.066C336.198 532.277 336.388 532.449 336.611 532.565C336.835 532.681 337.084 532.738 337.336 532.73H348.986C349.253 532.727 349.514 532.651 349.74 532.509C349.967 532.368 350.15 532.167 350.27 531.929C350.39 531.69 350.442 531.423 350.42 531.157C350.398 530.891 350.304 530.636 350.147 530.42C347.845 527.138 344.902 524.356 341.496 522.241C335.282 518.745 369.657 465.74 369.657 465.74C369.657 465.74 358.632 423.632 346.957 443.499Z" fill="black"/>
<path d="M501.583 443.895L508.958 462.907C509.461 464.212 509.796 465.575 509.953 466.965L511.421 479.993C511.849 483.816 513.202 487.478 515.364 490.66C519.511 496.772 527.396 512.952 529.821 517.966C530.301 518.96 530.999 519.832 531.862 520.518L536.966 524.627C537.745 525.248 538.39 526.021 538.861 526.898C539.333 527.775 539.621 528.739 539.71 529.731C539.888 531.581 539.927 533.559 539.289 533.559H532.832C531.743 533.56 530.667 533.324 529.68 532.865C528.692 532.407 527.817 531.738 527.116 530.905C523.9 527.077 518.184 520.57 516.78 520.161C515.121 519.676 497.538 499.924 489.818 491.375C488.028 489.385 487.038 486.803 487.036 484.127C487.037 483.403 486.867 482.69 486.541 482.044C486.215 481.398 485.742 480.837 485.16 480.408C484.577 479.978 483.902 479.691 483.189 479.57C482.475 479.45 481.743 479.498 481.052 479.712C475.948 481.269 465.523 482.57 462.397 482.928C462.397 482.928 484.689 458.684 484.089 442.938C483.489 427.192 501.111 433.534 501.532 437.578C501.785 439.675 501.802 441.794 501.583 443.895Z" fill="#00BA88"/>
<path opacity="0.1" d="M501.583 443.895L508.958 462.907C509.461 464.212 509.796 465.575 509.953 466.965L511.421 479.993C511.849 483.816 513.202 487.478 515.364 490.66C519.511 496.772 527.396 512.952 529.821 517.966C530.301 518.96 530.999 519.832 531.862 520.518L536.966 524.627C537.745 525.248 538.39 526.021 538.861 526.898C539.333 527.775 539.621 528.739 539.71 529.731C539.888 531.581 539.927 533.559 539.289 533.559H532.832C531.743 533.56 530.667 533.324 529.68 532.865C528.692 532.407 527.817 531.738 527.116 530.905C523.9 527.077 518.184 520.57 516.78 520.161C515.121 519.676 497.538 499.924 489.818 491.375C488.028 489.385 487.038 486.803 487.036 484.127C487.037 483.403 486.867 482.69 486.541 482.044C486.215 481.398 485.742 480.837 485.16 480.408C484.577 479.978 483.902 479.691 483.189 479.57C482.475 479.45 481.743 479.498 481.052 479.712C475.948 481.269 465.523 482.57 462.397 482.928C462.397 482.928 484.689 458.684 484.089 442.938C483.489 427.192 501.111 433.534 501.532 437.578C501.785 439.675 501.802 441.794 501.583 443.895Z" fill="black"/>
<path d="M363.66 413.016H363.813C366.263 412.237 369.262 411.446 372.745 410.668C396.492 405.194 440.628 399.745 461.568 400.32C462.601 400.32 463.571 400.396 464.477 400.46H464.566C466.102 400.542 467.632 400.716 469.147 400.983C470.079 401.13 470.988 401.395 471.852 401.774C472.182 401.911 472.484 402.105 472.745 402.348C482.953 412.276 498.954 419 500.97 436.239C501.009 436.488 501.035 436.74 501.047 436.992C501.176 438.357 501.215 439.73 501.162 441.1C501.162 441.343 501.162 441.598 501.162 441.853C501.162 442.402 501.098 442.976 501.034 443.55C501.04 443.652 501.04 443.755 501.034 443.857C500.332 450.619 497.78 458.748 492.689 468.764C492.243 469.645 491.77 470.538 491.273 471.457C489.402 474.587 486.575 477.034 483.208 478.436L482.609 478.717C481.071 479.396 479.489 479.971 477.875 480.44H477.811C473.392 481.656 468.86 482.417 464.285 482.711L463.175 482.787C462.036 482.857 460.894 482.857 459.756 482.787C459.756 482.787 459.756 482.787 459.756 482.787C456.642 482.545 453.452 481.984 450.594 482.443C450.345 482.48 450.098 482.531 449.854 482.596L449.497 482.673C448.298 482.975 447.181 483.541 446.23 484.331C446.028 484.48 445.84 484.646 445.669 484.829C444.986 485.513 444.398 486.286 443.92 487.126C443.102 488.565 442.578 490.153 442.376 491.796C442.249 492.702 442.109 493.633 441.968 494.603C440.156 506.789 437.898 523.249 447.825 526.146C451.653 527.269 450.849 531.122 451.168 532.181C452.903 537.962 439.684 536.43 439.684 536.43C436.443 535.32 432.59 533.815 429.565 534.708C428.289 535.065 426.643 532.985 426.835 531.684C428.94 516.589 425.316 502.195 424.104 481.626H423.453L399.388 480.376H398.406H397.959C397.704 481.078 392.791 499.324 397.066 509.66C400.396 517.699 407.899 522.867 416.448 524.487C419.804 525.125 419.689 528.315 420.672 531.888C421.731 535.627 414.968 534.351 411.089 534.223C411.089 534.223 389.014 527.282 382.022 515.44C379.789 511.612 384.484 507.644 382.672 503.624C378.844 495.063 372.235 485.76 366.888 478.028C366.038 476.803 365.144 475.604 364.209 474.43C360.904 470.206 357.242 466.212 354.065 461.95C353.835 463.086 353.567 464.209 353.452 465.089C352.178 463.131 351.484 460.853 351.449 458.518L348.897 463.482C348.144 458.25 347.391 453.044 346.625 447.825C346.562 447.417 346.511 447.021 346.472 446.626C346.437 446.201 346.437 445.774 346.472 445.35C346.2 443.611 346.081 441.852 346.115 440.092V440.092C346.156 437.101 346.611 434.129 347.468 431.263C349.186 425.254 352.666 419.898 357.459 415.887L363.66 413.016Z" fill="#00BA88"/>
<path opacity="0.1" d="M450.071 481.792C449.867 482.097 449.637 482.383 449.382 482.647C453.541 481.549 458.531 483.106 463.073 482.825C468.917 482.468 475.655 479.763 481.665 477.083C481.665 477.083 488.159 472.528 490.354 469.81C490.985 469.008 491.461 468.095 491.758 467.118C492.676 464.247 492.893 462.524 489.895 460.738C485.633 458.186 471.737 462.626 467.399 464.234C461.019 466.582 455.111 470.895 452.304 477.058C451.692 478.695 450.945 480.279 450.071 481.792V481.792Z" fill="black"/>
<path opacity="0.1" d="M445.554 484.803C445.725 484.621 445.913 484.454 446.115 484.306H445.694C445.614 484.46 445.566 484.63 445.554 484.803Z" fill="black"/>
<path opacity="0.1" d="M393.506 469.491C395.573 471.622 397.755 476.127 397.831 478.717C397.831 479.993 397.831 480.146 397.921 480.325L400.026 480.401L423.862 481.575C424.027 478.952 423.293 476.35 421.782 474.2L414.381 462.958C414.445 465.23 414.496 467.488 414.547 469.759C412.73 467.145 410.615 464.751 408.243 462.626C408.167 464.668 408.103 466.71 408.027 468.739L404.199 466.187C404.288 467.641 404.377 469.096 404.479 470.55C404.11 470.086 403.609 469.744 403.042 469.568C402.476 469.393 401.869 469.393 401.302 469.568C401.902 470.34 402.278 471.263 402.387 472.235C402.387 473.217 401.647 474.276 400.69 474.213C400.216 474.136 399.774 473.929 399.414 473.613C397.448 472.248 395.471 470.844 393.506 469.491Z" fill="black"/>
<path d="M477.696 377.492C485.633 373.524 494.833 373.102 503.701 373.166C507.771 373.166 512.033 373.358 515.581 375.361C519.128 377.364 521.642 381.741 520.136 385.569L530.599 385.875C531.577 389.454 531.431 393.246 530.18 396.739C528.929 400.231 526.634 403.254 523.607 405.398L526.427 405.998C528.328 406.789 528.43 409.673 527.154 411.306C525.878 412.939 523.811 413.666 521.935 414.509C518.151 416.245 514.747 418.712 511.918 421.766C509.089 424.821 506.891 428.403 505.449 432.309C504.173 435.958 501.302 445.758 497.857 447.557C493.493 449.828 490.201 440.998 486.552 437.732C480.439 432.309 474.506 426.529 470.321 419.523C461.912 405.385 461.095 385.786 477.696 377.492Z" fill="#00BA88"/>
<path opacity="0.2" d="M504.862 408.205C507.172 409.864 510.196 410.081 513.041 410.259L527.282 411.102C527.662 410.532 527.895 409.878 527.962 409.197C528.029 408.516 527.927 407.829 527.664 407.197C527.407 406.652 526.95 406.228 526.388 406.01L523.568 405.411C526.597 403.265 528.892 400.239 530.143 396.745C531.394 393.25 531.54 389.455 530.561 385.875L527.486 385.786V390.52C526.21 403.407 513.781 403.484 503.242 400.817C501.391 402.935 502.54 406.559 504.862 408.205Z" fill="black"/>
<path opacity="0.1" d="M463.8 411.471C460.317 415.223 471.98 404.785 472.426 399.694C475.233 400.523 478.27 398.635 479.725 396.108C480.993 393.459 481.656 390.56 481.664 387.623C481.664 387.623 480.108 394.973 475.731 394.973H471.354C471.354 394.973 466.735 408.32 463.8 411.471Z" fill="black"/>
<path d="M502.961 386.207C502.961 386.985 504.109 387.623 505.513 387.623C506.917 387.623 508.065 386.985 508.065 386.207C508.065 385.429 506.917 384.791 505.513 384.791C504.109 384.791 502.961 385.429 502.961 386.207Z" fill="#263238"/>
<path opacity="0.1" d="M502.744 431.186C502.31 428.634 500.843 426.082 498.406 425.316C498.742 425.451 499.103 425.513 499.465 425.497C499.827 425.481 500.182 425.389 500.505 425.226C500.828 425.062 501.113 424.832 501.341 424.55C501.568 424.268 501.733 423.941 501.825 423.591C501.916 423.24 501.932 422.874 501.87 422.517C501.809 422.16 501.673 421.82 501.47 421.519C501.267 421.219 501.003 420.966 500.695 420.775C500.386 420.585 500.041 420.463 499.682 420.416C501.71 420.046 502.795 417.01 501.698 415.057C500.485 412.875 497.87 411.957 495.445 411.37H495.547C503.182 412.164 510.748 413.52 518.184 415.427L519.536 415.746C513.047 419.446 508.075 425.322 505.5 432.334C504.888 433.993 503.969 436.941 502.833 439.824C502.833 439.493 502.833 439.174 502.833 438.842C503.034 436.292 503.004 433.73 502.744 431.186V431.186Z" fill="black"/>
<path d="M525.253 385.722L530.599 385.888C531.261 388.179 531.431 390.583 531.097 392.944C529.566 392.373 528.216 391.402 527.188 390.132C526.16 388.861 525.492 387.339 525.253 385.722V385.722Z" fill="#263238"/>
<path d="M515.632 408.065C517.252 408.128 519.09 408.128 521.182 408.065H521.31H521.973H522.726C524.525 407.963 526.005 408.945 527.83 409.966C528.734 410.596 529.717 411.106 530.752 411.484C531.271 411.665 531.832 411.685 532.363 411.542C532.893 411.398 533.368 411.098 533.725 410.68C533.987 410.21 534.093 409.67 534.029 409.136C533.964 408.602 533.733 408.102 533.368 407.707C532.608 406.944 531.641 406.421 530.586 406.202C528.504 405.669 526.347 405.492 524.206 405.678C523.967 405.689 523.728 405.715 523.492 405.755C520.493 405.997 517.724 407.452 515.632 408.065Z" fill="#E8483F"/>
<path d="M515.632 408.065C517.479 408.221 519.335 408.221 521.182 408.065C519.09 408.129 517.252 408.129 515.632 408.065Z" fill="#E8483F"/>
<path d="M507.121 406.355C509.813 407.492 512.708 408.074 515.632 408.065C517.89 407.401 520.953 405.742 524.181 405.513L523.607 405.385C517.645 406.504 511.481 405.606 506.087 402.833C506.087 402.833 502.744 404.096 507.121 406.355Z" fill="#263238"/>
<path d="M501.774 465.434C501.818 464.471 501.665 463.51 501.325 462.608C500.985 461.706 500.465 460.883 499.796 460.189C500.094 464.658 499.154 469.121 497.079 473.09L497.232 468.343C495.602 471.052 493.258 473.259 490.456 474.723C491.137 474.223 491.709 473.59 492.137 472.861C492.564 472.133 492.839 471.325 492.944 470.487C491.387 473.064 489.533 475.449 487.419 477.594C485.286 479.75 482.454 481.075 479.432 481.333C483.857 478.2 487.615 474.217 490.485 469.616C493.355 465.016 495.28 459.889 496.147 454.537C496.398 451.948 496.877 449.386 497.576 446.881C498.316 444.711 500.128 440.807 501.264 444.558C503.178 450.658 502.221 459.194 501.774 465.434Z" fill="#00BA88"/>
<path d="M450.071 486.283L447.876 484.178C448.138 486.594 447.562 489.027 446.243 491.068C446.243 490.06 446.243 489.052 446.141 488.044C444.95 491.199 442.904 493.961 440.233 496.019C440.82 492.74 441.509 489.473 442.453 486.245C443.065 484.038 444.903 478.117 448.195 478.589C451.487 479.061 448.412 484.701 450.071 486.283Z" fill="#00BA88"/>
<path d="M464.464 400.09C464.679 401.571 464.631 403.078 464.324 404.543C464.288 404.719 464.214 404.885 464.107 405.028C463.852 409.762 465.689 414.738 469.619 419.855C478.793 431.798 496.415 440.514 501.787 441.164C502.043 441.26 502.262 441.436 502.411 441.665C502.56 441.895 502.631 442.166 502.614 442.44C502.597 442.713 502.492 442.973 502.316 443.182C502.139 443.392 501.9 443.539 501.634 443.601H501.493C495.113 442.849 477.045 433.572 467.667 421.348C462.958 415.21 460.981 409.137 461.81 403.305C461.953 402.287 461.848 401.25 461.504 400.281L464.464 400.09Z" fill="#263238"/>
<path d="M466.314 421.348C467.144 420.238 468.866 419.089 468.381 417.762C469.3 420.595 469.568 422.777 471.788 424.768L471.482 421.565C472.768 424.895 474.944 427.808 477.773 429.986C477.714 428.916 477.259 427.907 476.497 427.154C478.919 428.811 481.692 429.886 484.599 430.293C480.924 423.632 473.804 414.789 466.212 412.646C466.238 414.508 467.475 419.804 466.314 421.348Z" fill="#00BA88"/>
<path d="M486.411 436.29C487.062 435.014 488.542 433.674 487.917 432.462C489.193 435.116 489.844 437.234 492.332 438.842L491.554 435.728C493.325 438.828 495.917 441.38 499.044 443.103C498.829 442.058 498.239 441.127 497.385 440.488C500.03 441.762 502.935 442.404 505.87 442.363C501.226 436.341 492.842 428.672 485.02 427.702C485.301 429.527 487.317 434.593 486.411 436.29Z" fill="#00BA88"/>
<path d="M186.373 271.176C197.206 277.734 243.525 285.773 246.345 285.582C247.424 285.58 248.485 285.301 249.425 284.771C250.366 284.241 251.155 283.479 251.717 282.557C252.195 281.698 252.481 280.745 252.556 279.764C252.63 278.783 252.491 277.798 252.148 276.876C251.805 275.954 251.265 275.117 250.568 274.424C249.87 273.731 249.03 273.197 248.105 272.86C236.149 268.292 215.006 259.487 205.997 254.46C198.928 250.53 209.392 200.026 196.108 195.675C174.544 188.631 173.536 263.417 186.373 271.176Z" fill="#00BA88"/>
<g opacity="0.1">
<path opacity="0.1" d="M186.373 271.176C197.206 277.734 243.525 285.773 246.345 285.582C247.424 285.58 248.485 285.301 249.425 284.771C250.366 284.241 251.155 283.479 251.717 282.557C252.195 281.698 252.481 280.745 252.556 279.764C252.63 278.783 252.491 277.798 252.148 276.876C251.805 275.954 251.265 275.117 250.568 274.424C249.87 273.731 249.03 273.197 248.105 272.86C236.149 268.292 215.006 259.487 205.997 254.46C198.928 250.53 209.392 200.026 196.108 195.675C174.544 188.631 173.536 263.417 186.373 271.176Z" fill="black"/>
</g>
<path d="M244.686 285.939L256.54 292.076C256.54 292.076 263.813 281.422 264.043 280.171C264.043 280.171 258.416 275.552 252.303 275.514L248.348 275.82C247.813 275.859 247.292 276.009 246.818 276.259C246.344 276.51 245.926 276.855 245.592 277.275L243.423 279.98C243.057 280.434 242.797 280.964 242.661 281.531C242.526 282.098 242.518 282.689 242.639 283.259C242.76 283.83 243.007 284.366 243.361 284.829C243.715 285.293 244.167 285.672 244.686 285.939V285.939Z" fill="#FFB373"/>
<path d="M254.077 290.928L263.545 279.967L269.108 283.272C269.351 283.419 269.559 283.616 269.72 283.849C269.88 284.083 269.988 284.348 270.038 284.627C270.087 284.906 270.077 285.193 270.007 285.467C269.937 285.742 269.809 285.998 269.632 286.22L264.706 292.357C264.189 292.99 263.482 293.44 262.69 293.642C261.898 293.844 261.062 293.788 260.304 293.48L254.077 290.928Z" fill="#FFB373"/>
<path d="M193.378 195.228C198.865 197.78 201.238 235.218 197.805 275.756C197.129 283.744 152.24 284.688 144.15 277.415L128.034 212.339C127.512 210.232 127.437 208.04 127.813 205.903C128.189 203.766 129.008 201.73 130.216 199.928C131.425 198.126 132.997 196.596 134.832 195.437C136.667 194.279 138.724 193.516 140.87 193.199C144.52 192.676 162.486 180.771 193.378 195.228Z" fill="#00BA88"/>
<path d="M197.78 275.744C199.056 282.953 200.472 298.176 203.509 304.785L203.777 305.385C205.126 308.416 205.548 311.778 204.989 315.048C204.43 318.318 202.916 321.35 200.638 323.761C198.359 326.172 195.418 327.855 192.184 328.597C188.951 329.339 185.57 329.108 182.468 327.932L173.408 324.487C173.408 324.487 169.427 324.704 138.637 315.555C137.999 315.363 136.085 312.684 136.29 304.977C136.491 298.945 137.788 293 140.118 287.432L144.201 277.415C162.059 279.143 180.064 278.581 197.78 275.744V275.744Z" fill="#263238"/>
<path d="M240.181 492.612L239.888 530.088C238.701 530.701 225.788 535.448 225.597 531.849C225.01 520.876 223.849 497.818 223.849 497.818L240.181 492.612Z" fill="#FFB373"/>
<path d="M243.32 520.748C243.245 520.736 243.174 520.701 243.117 520.649C243.061 520.597 243.02 520.53 243.001 520.455C242.986 520.38 242.994 520.302 243.024 520.232C243.053 520.161 243.103 520.101 243.167 520.059C243.384 519.906 248.616 516.346 251.283 516.857C251.537 516.89 251.781 516.975 252 517.107C252.22 517.238 252.41 517.414 252.559 517.622C252.751 517.842 252.87 518.117 252.897 518.408C252.925 518.699 252.86 518.991 252.712 519.243C252.189 520.2 250.262 520.634 248.233 520.774C246.598 520.919 244.954 520.911 243.32 520.748V520.748ZM250.466 517.533C248.342 517.993 246.328 518.86 244.533 520.085C247.467 520.264 251.449 519.919 252.099 518.809C252.176 518.669 252.252 518.439 251.946 517.992C251.86 517.867 251.749 517.761 251.619 517.682C251.489 517.602 251.344 517.552 251.193 517.533C250.948 517.501 250.699 517.501 250.453 517.533H250.466Z" fill="#00BA88"/>
<path d="M243.116 520.608C243.065 520.566 243.026 520.51 243.006 520.446C242.986 520.383 242.984 520.315 243.001 520.251C243.001 520.072 243.091 515.823 244.966 514.011C245.24 513.764 245.561 513.575 245.91 513.454C246.258 513.334 246.627 513.285 246.995 513.309C247.315 513.271 247.638 513.345 247.908 513.52C248.179 513.695 248.379 513.959 248.475 514.266C248.922 516.002 245.426 519.689 243.601 520.646H243.448L243.116 520.608ZM245.49 514.598C244.42 516.049 243.831 517.798 243.805 519.6C245.643 518.324 248.08 515.364 247.735 514.368C247.735 514.279 247.646 514.024 246.983 513.998L246.753 514.075C246.284 514.087 245.835 514.268 245.49 514.585V514.598Z" fill="#00BA88"/>
<path d="M240.679 518.056L225.367 518.464C225.052 518.462 224.747 518.577 224.511 518.787C224.275 518.997 224.126 519.286 224.091 519.6L221.437 532.296C221.258 533.572 223.734 534.988 223.874 534.976C233.215 535.639 253.222 535.512 259.87 535.205C266.518 534.899 267.029 528.315 264.298 527.856C252.048 525.763 247.302 522.318 243.282 519.013C242.565 518.38 241.636 518.038 240.679 518.056Z" fill="#263238"/>
<g opacity="0.2">
<path opacity="0.2" d="M224.436 509.213L223.849 497.818L240.169 492.612L239.875 507.95L224.436 509.213Z" fill="black"/>
</g>
<path d="M110.195 487.636L89.3966 518.822C88.1206 518.681 74.6715 515.568 76.4835 512.442C82.0085 502.935 93.6839 483.017 93.6839 483.017L110.195 487.636Z" fill="#FFB373"/>
<path d="M97.3843 512.952C97.3282 512.899 97.2886 512.831 97.2705 512.757C97.2523 512.682 97.2564 512.603 97.2822 512.531C97.3105 512.459 97.3597 512.398 97.4234 512.354C97.4872 512.311 97.5625 512.288 97.6395 512.288C97.9075 512.288 104.224 512.174 106.176 514.075C106.364 514.232 106.518 514.427 106.628 514.646C106.738 514.866 106.801 515.106 106.814 515.351C106.853 515.641 106.8 515.936 106.662 516.194C106.525 516.453 106.31 516.662 106.048 516.793C105.091 517.303 103.241 516.601 101.48 515.619C100.034 514.861 98.6626 513.968 97.3843 512.952V512.952ZM105.13 514.228C103.099 513.432 100.931 513.041 98.7496 513.08C101.11 514.84 104.619 516.742 105.755 516.206C105.908 516.116 106.087 515.963 106.087 515.427C106.08 515.275 106.042 515.125 105.976 514.987C105.911 514.849 105.818 514.725 105.704 514.623C105.514 514.469 105.314 514.328 105.104 514.202L105.13 514.228Z" fill="#00BA88"/>
<path d="M97.3078 512.646C97.2857 512.584 97.2824 512.517 97.2983 512.453C97.3142 512.39 97.3486 512.332 97.3971 512.288C97.5119 512.135 99.9491 508.626 102.501 508.141C103.238 508.037 103.986 508.23 104.581 508.677C104.869 508.82 105.098 509.059 105.228 509.352C105.359 509.646 105.382 509.976 105.296 510.285C104.709 511.982 99.7704 513.156 97.6395 512.99H97.4864L97.3078 512.646ZM102.578 508.933C100.89 509.558 99.4396 510.696 98.4306 512.186C100.702 512.084 104.326 510.987 104.581 509.966C104.581 509.864 104.696 509.622 104.16 509.239H103.93C103.536 508.966 103.051 508.857 102.578 508.933Z" fill="#00BA88"/>
<path d="M96.6698 509.124L83.7056 501.149C83.4431 500.971 83.124 500.898 82.8103 500.943C82.4966 500.987 82.2108 501.147 82.0085 501.391L72.8213 510.553C71.9664 511.535 73.2679 514.062 73.3828 514.138C80.8346 519.804 97.6268 530.726 103.356 534.07C109.085 537.413 113.13 532.232 111.101 530.344C102.003 521.884 99.9236 516.397 98.3413 511.433C98.0928 510.481 97.4964 509.657 96.6698 509.124Z" fill="#263238"/>
<g opacity="0.2">
<path opacity="0.2" d="M87.9164 492.893L93.6839 483.03L110.195 487.636L101.531 500.294L87.9164 492.893Z" fill="black"/>
</g>
<path d="M167.743 331.147C171.711 346.791 202.476 386.232 212.671 412.684C220.518 433.1 219.6 475.118 219.37 498.635C219.338 499.715 219.552 500.788 219.993 501.773C220.435 502.759 221.095 503.631 221.922 504.326C221.922 504.326 235.422 503.816 239.582 503.127C252.865 500.932 249.177 433.393 248.131 416.907C246.357 388.912 228.8 343.142 202.131 300.791C197.665 293.697 189.83 298.086 179.431 300.957C177.543 301.493 163.902 315.963 167.743 331.147Z" fill="#263238"/>
<path opacity="0.2" d="M176.088 311.893C173.408 309.06 173.434 344.392 173.434 344.392L188.248 370.04C188.248 370.04 196.581 333.61 176.088 311.893Z" fill="black"/>
<path d="M138.191 312.901C109.57 466.11 82.7231 477.313 88.5033 487.432C88.5033 487.432 100.676 493.429 103.93 496.122C111.586 502.502 147.697 443.806 152.559 427.983C163.405 392.663 177.3 353.452 179.444 313.807C179.903 305.436 174.786 297.397 164.527 294.092C162.652 293.48 141.075 297.512 138.191 312.901Z" fill="#263238"/>
<path opacity="0.1" d="M152.661 255.902C151.882 257.178 147.187 253.975 146.281 252.763C143.524 248.82 142.593 241.687 141.751 237.042C140.734 231.45 140.306 225.766 140.475 220.084C140.564 217.711 140.181 206.125 143.856 210.374C146.919 213.806 153.426 254.638 152.661 255.902Z" fill="black"/>
<path d="M183.055 295.841C181.626 296.3 180.005 295.496 178.729 293.697C177.395 291.804 176.541 289.614 176.241 287.317L172.617 292.944C171.941 293.991 171.073 295.062 169.759 295.024C169.451 295.016 169.149 294.942 168.871 294.808C168.594 294.674 168.349 294.482 168.151 294.246C167.816 293.809 167.571 293.31 167.431 292.778C167.291 292.245 167.258 291.69 167.335 291.145C167.631 289.109 168.723 287.273 170.371 286.041C171.983 284.763 174.03 284.168 176.075 284.382L175.871 283.859L177.019 283.425L177.134 283.719L177.364 283.336V283.872C178.288 283.62 179.263 283.616 180.188 283.863C181.114 284.11 181.958 284.597 182.634 285.275C184.043 286.821 184.912 288.782 185.109 290.864C185.39 292.753 185.033 295.203 183.093 295.853L183.055 295.841ZM177.364 285.173V285.429C177.351 288.138 178.185 290.784 179.75 292.995C180.477 294.029 181.588 295.024 182.71 294.667C183.986 294.233 184.088 292.115 183.91 291.017C183.751 289.2 183.003 287.484 181.779 286.13C181.317 285.652 180.75 285.288 180.124 285.067C179.497 284.845 178.827 284.773 178.168 284.854L177.377 285.122L177.364 285.173ZM173.306 285.837C172.52 286.086 171.785 286.475 171.137 286.985C169.75 288.029 168.833 289.58 168.585 291.298C168.484 292.055 168.676 292.822 169.121 293.442C169.206 293.551 169.314 293.639 169.438 293.701C169.562 293.763 169.697 293.796 169.836 293.799C170.537 293.799 171.112 293.046 171.622 292.281L175.884 285.684L175.654 285.76L175.578 285.543C174.805 285.487 174.029 285.582 173.294 285.824L173.306 285.837Z" fill="#00BA88"/>
<path d="M167.564 313.896L166.467 313.335C170.884 304.724 173.023 295.126 172.681 285.454H173.957C174.285 295.325 172.084 305.115 167.564 313.896V313.896Z" fill="#00BA88"/>
<path d="M191.732 311.637L190.532 311.893C188.36 301.606 182.449 292.49 173.944 286.309L174.672 285.313C183.418 291.676 189.496 301.055 191.732 311.637V311.637Z" fill="#00BA88"/>
<path d="M158.964 176.471L158.02 175.705C155.238 172.183 154.192 168.177 152.98 161.937C152.661 160.342 152.354 158.594 151.997 156.667C151.493 154.129 151.581 151.51 152.252 149.011C152.605 147.68 153.115 146.395 153.771 145.183C155.264 150.734 155.481 156.501 155.991 162.192C156.272 167.072 157.273 171.884 158.964 176.471V176.471Z" fill="#263238"/>
<path d="M183.438 201.889C169.402 221.412 151.908 193.25 141.33 193.454C139.665 193.835 138.069 194.467 136.596 195.33C136.152 195.268 135.704 195.234 135.256 195.228C133.431 195.19 131.653 195.806 130.241 196.963C129.208 195.815 133.738 189.448 133.993 187.917C135.524 178.576 145.311 171.418 154.677 172.783C154.677 172.783 169.682 175.807 174.238 180.643C177.173 183.744 181.651 188.427 183.502 193.403C184.079 194.745 184.371 196.192 184.36 197.653C184.349 199.113 184.035 200.556 183.438 201.889V201.889Z" fill="#263238"/>
<path d="M160.202 169.772C160.904 176.152 161.388 185.084 157.931 190.188C157.326 191.038 156.988 192.048 156.959 193.091C156.929 194.134 157.21 195.161 157.765 196.045C159.309 198.354 162.333 201.557 168.317 205.283C169.405 205.967 170.65 206.36 171.934 206.426C173.217 206.491 174.496 206.226 175.648 205.657C176.8 205.087 177.787 204.232 178.514 203.172C179.241 202.113 179.684 200.884 179.801 199.605V199.605C179.898 198.23 179.571 196.859 178.864 195.677C178.156 194.495 177.103 193.559 175.846 192.995C170.678 190.571 171.239 187.47 172.834 182.647L160.202 169.772Z" fill="#FFB373"/>
<path opacity="0.2" d="M165.319 174.978L172.694 182.634C172.247 183.908 171.914 185.219 171.699 186.551C168.713 185.849 164.183 182.851 163.8 179.444C163.932 177.853 164.453 176.319 165.319 174.978V174.978Z" fill="black"/>
<path d="M187.317 169.708C186.996 173.4 185.312 176.841 182.592 179.358C179.871 181.876 176.311 183.289 172.605 183.323H172.515C169.638 183.343 166.806 182.599 164.311 181.166C163.38 180.654 162.496 180.061 161.669 179.393C161.325 179.125 160.993 178.844 160.687 178.576C159.713 177.725 158.82 176.785 158.02 175.769V175.769C155.238 172.247 154.192 168.24 152.98 162.001C152.661 160.406 152.354 158.658 151.997 156.731C151.493 154.193 151.581 151.574 152.252 149.075C152.605 147.743 153.115 146.458 153.771 145.247C154.056 144.714 154.38 144.202 154.741 143.716C156.66 140.947 159.395 138.845 162.564 137.702C165.734 136.558 169.181 136.43 172.426 137.336C178.002 138.816 181.843 143.346 184.254 148.896C184.51 149.445 184.727 150.019 184.931 150.581C187.123 156.703 187.938 163.234 187.317 169.708V169.708Z" fill="#FFB373"/>
<path d="M171.367 157.407C171.507 158.39 172.12 159.13 172.745 159.053C173.37 158.977 173.804 158.096 173.689 157.114C173.574 156.131 172.936 155.379 172.311 155.455C171.686 155.532 171.303 156.45 171.367 157.407Z" fill="#263238"/>
<path d="M182.34 156.029C182.481 157.025 183.093 157.752 183.719 157.675C184.344 157.599 184.778 156.718 184.663 155.736C184.548 154.753 183.91 154 183.285 154.103C182.659 154.205 182.226 155.034 182.34 156.029Z" fill="#263238"/>
<path d="M179.176 158.224C180.325 160.368 181.758 162.347 183.438 164.106C182.987 164.526 182.449 164.842 181.863 165.032C181.276 165.222 180.655 165.28 180.044 165.204L179.176 158.224Z" fill="#E8483F"/>
<path d="M175.233 169.785C175.715 169.798 176.197 169.772 176.675 169.708C176.751 169.698 176.82 169.66 176.867 169.6C176.915 169.541 176.937 169.465 176.93 169.389C176.915 169.315 176.872 169.249 176.811 169.204C176.75 169.159 176.674 169.139 176.598 169.147C175.389 169.326 174.155 169.214 172.998 168.818C171.842 168.423 170.797 167.757 169.95 166.875C169.925 166.848 169.895 166.826 169.861 166.811C169.827 166.796 169.79 166.788 169.753 166.788C169.715 166.788 169.679 166.796 169.645 166.811C169.611 166.826 169.58 166.848 169.555 166.875C169.527 166.901 169.505 166.933 169.49 166.968C169.475 167.003 169.467 167.041 169.467 167.079C169.467 167.118 169.475 167.155 169.49 167.191C169.505 167.226 169.527 167.257 169.555 167.284C170.285 168.06 171.164 168.681 172.14 169.111C173.115 169.541 174.167 169.77 175.233 169.785V169.785Z" fill="#263238"/>
<path d="M166.684 155.672C166.807 155.683 166.931 155.651 167.033 155.581C167.135 155.511 167.21 155.408 167.245 155.289C167.668 154.446 168.26 153.699 168.985 153.095C169.709 152.491 170.551 152.044 171.456 151.78C171.608 151.738 171.737 151.639 171.815 151.503C171.894 151.367 171.916 151.205 171.877 151.053C171.838 150.908 171.744 150.785 171.616 150.709C171.487 150.632 171.334 150.609 171.188 150.644V150.644C170.097 150.949 169.084 151.486 168.221 152.22C167.357 152.954 166.663 153.866 166.186 154.894C166.136 155.037 166.144 155.195 166.209 155.333C166.273 155.471 166.389 155.579 166.531 155.634V155.634C166.577 155.66 166.63 155.673 166.684 155.672Z" fill="#263238"/>
<path d="M185.02 150.44C185.149 150.445 185.276 150.407 185.382 150.332C185.487 150.257 185.565 150.149 185.602 150.025C185.64 149.902 185.636 149.769 185.591 149.648C185.546 149.527 185.461 149.424 185.352 149.356C184.593 148.824 183.713 148.491 182.792 148.389C181.871 148.286 180.939 148.417 180.082 148.769C179.947 148.83 179.841 148.942 179.786 149.08C179.731 149.218 179.732 149.371 179.788 149.509C179.788 149.509 179.788 149.509 179.788 149.509C179.817 149.578 179.86 149.641 179.914 149.694C179.969 149.746 180.033 149.787 180.104 149.813C180.174 149.839 180.25 149.851 180.325 149.847C180.4 149.843 180.474 149.823 180.541 149.79V149.79C181.219 149.537 181.949 149.453 182.666 149.544C183.384 149.635 184.069 149.899 184.663 150.313C184.762 150.398 184.889 150.444 185.02 150.44V150.44Z" fill="#263238"/>
<path d="M158.964 165.267C158.441 165.944 156.808 162.333 155.965 162.167C154.976 161.955 153.965 161.869 152.954 161.912C154.141 168.151 155.213 172.12 157.994 175.68C153.35 171.75 149.254 166.926 147.391 161.095C146.478 157.819 146.454 154.36 147.322 151.072C148.19 147.784 149.918 144.787 152.329 142.389C152.712 142.044 153.324 142.197 153.796 142.389C154.268 142.58 156.731 143.116 157.752 143.307C158.508 143.49 159.211 143.849 159.803 144.355C160.395 144.86 160.86 145.498 161.159 146.217C156.948 154.09 160.559 163.175 158.964 165.267Z" fill="#263238"/>
<path d="M149.866 166.416C150.875 168.487 152.658 170.077 154.83 170.844C157.714 171.788 159.296 169.198 158.658 166.327C158.02 163.775 155.761 160.163 152.814 160.406C151.777 160.53 150.832 161.061 150.186 161.882C149.54 162.702 149.246 163.746 149.369 164.783C149.419 165.356 149.588 165.912 149.866 166.416V166.416Z" fill="#FFB373"/>
<path d="M172.821 147.008L166.786 145.132C171.354 145.362 176.075 145.63 180.158 147.684C184.242 149.739 187.483 154.166 186.743 158.671C188.72 154.472 190.736 150.058 190.571 145.413C190.41 142.915 189.704 140.483 188.503 138.287C187.301 136.092 185.633 134.186 183.616 132.704C179.527 129.759 174.62 128.166 169.58 128.149C165.196 127.84 160.842 129.082 157.28 131.658C154.026 134.21 150.708 141.1 154.37 144.673C158.033 148.246 168.075 147.62 172.821 147.008Z" fill="#263238"/>
<path d="M461.542 400.268C461.016 398.79 460.004 397.535 458.671 396.708V396.708C458.314 396.555 458.007 396.415 457.778 396.287L445.184 388.695L442.772 387.253C395.267 359.041 281.588 291.783 266.097 284.905C254.613 279.801 237.795 280.835 225.699 282.557C223.687 282.82 221.799 283.677 220.276 285.018C218.754 286.359 217.665 288.123 217.15 290.086C216.602 291.983 216.629 294 217.226 295.883C217.824 297.765 218.965 299.429 220.506 300.664L220.761 300.868C221.006 301.076 221.163 301.37 221.201 301.689C221.238 302.008 221.154 302.33 220.965 302.59C220.756 302.835 220.463 302.992 220.144 303.03C219.824 303.068 219.502 302.984 219.242 302.795L218.962 302.565C217.05 301.028 215.635 298.961 214.893 296.623C214.151 294.285 214.115 291.78 214.789 289.422C215.437 287.004 216.786 284.831 218.666 283.178C220.546 281.525 222.873 280.466 225.354 280.133C237.77 278.359 255.085 277.364 267.08 282.685C282.711 289.588 396.491 356.935 444.035 385.173L459.015 394.105C459.224 394.224 459.441 394.327 459.666 394.411L459.807 394.475C461.012 394.896 462.081 395.633 462.903 396.61C463.725 397.586 464.268 398.766 464.477 400.026L461.542 400.268Z" fill="#263238"/>
<path d="M459.807 394.526L459.666 394.462C459.441 394.378 459.224 394.275 459.015 394.156L444.035 385.224C450.785 389.18 456.208 392.383 459.807 394.526Z" fill="#263238"/>
<path d="M202.055 280.082L218.987 286.679C218.987 286.679 225.086 275.322 225.188 274.059C225.188 274.059 219.102 270.053 213.015 270.652L207.439 271.686L202.055 280.082Z" fill="#FFB373"/>
<path d="M216.41 285.824L224.665 273.932L230.548 276.662C230.805 276.781 231.034 276.954 231.218 277.169C231.403 277.384 231.539 277.636 231.618 277.909C231.696 278.181 231.715 278.467 231.674 278.747C231.632 279.027 231.531 279.296 231.377 279.533L227.128 286.168C226.678 286.861 226.016 287.389 225.241 287.674C224.466 287.959 223.619 287.986 222.828 287.751L216.41 285.824Z" fill="#FFB373"/>
<path d="M135.358 271.52C146.842 276.905 200.192 281.269 202.986 280.784C204.058 280.662 205.081 280.27 205.96 279.645C206.839 279.02 207.546 278.183 208.014 277.211C208.399 276.305 208.583 275.327 208.554 274.343C208.524 273.359 208.281 272.394 207.842 271.513C207.403 270.632 206.778 269.857 206.01 269.242C205.242 268.626 204.35 268.184 203.394 267.947C191.03 264.668 159.793 258.25 150.262 254.217C142.81 251.053 150.708 198.341 137.042 195.432C114.84 190.698 121.807 265.166 135.358 271.52Z" fill="#00BA88"/>
<path opacity="0.1" d="M135.358 271.52C146.842 276.905 200.192 281.269 202.986 280.784C204.058 280.662 205.081 280.27 205.96 279.645C206.839 279.02 207.546 278.183 208.014 277.211C208.399 276.305 208.583 275.327 208.554 274.343C208.524 273.359 208.281 272.394 207.842 271.513C207.403 270.632 206.778 269.857 206.01 269.242C205.242 268.626 204.35 268.184 203.394 267.947C191.03 264.668 159.793 258.25 150.262 254.217C142.81 251.053 150.708 198.341 137.042 195.432C114.84 190.698 121.807 265.166 135.358 271.52Z" fill="#E0E0E0"/>
</svg>
