<svg width="30" height="30" viewBox="0 0 30 30" fill="none" xmlns="http://www.w3.org/2000/svg">
<g clip-path="url(#clip0)">
<path d="M15.005 7.29749C10.7512 7.29749 7.3075 10.745 7.3075 14.995C7.3075 19.2487 10.755 22.6925 15.005 22.6925C19.2587 22.6925 22.7025 19.245 22.7025 14.995C22.7025 10.7412 19.255 7.29749 15.005 7.29749ZM15.005 19.9912C12.2437 19.9912 10.0087 17.755 10.0087 14.995C10.0087 12.235 12.245 9.99874 15.005 9.99874C17.765 9.99874 20.0012 12.235 20.0012 14.995C20.0025 17.755 17.7662 19.9912 15.005 19.9912Z" fill="#5F2EEA"/>
<path d="M21.1845 0.0964306C18.4245 -0.0323194 11.5882 -0.0260694 8.82572 0.0964306C6.39822 0.210181 4.25697 0.796431 2.53072 2.52268C-0.354275 5.40768 0.0144754 9.29518 0.0144754 14.9964C0.0144754 20.8314 -0.310524 24.6289 2.53072 27.4702C5.42697 30.3652 9.37072 29.9864 15.0045 29.9864C20.7845 29.9864 22.7795 29.9902 24.8232 29.1989C27.602 28.1202 29.6995 25.6364 29.9045 21.1752C30.0345 18.4139 30.027 11.5789 29.9045 8.81643C29.657 3.55018 26.8307 0.356431 21.1845 0.0964306ZM25.5532 25.5614C23.662 27.4527 21.0382 27.2839 14.9682 27.2839C8.71822 27.2839 6.21197 27.3764 4.38322 25.5427C2.27697 23.4464 2.65822 20.0802 2.65822 14.9764C2.65822 8.07018 1.94947 3.09643 8.88072 2.74143C10.4732 2.68518 10.942 2.66643 14.9507 2.66643L15.007 2.70393C21.6682 2.70393 26.8945 2.00643 27.2082 8.93643C27.2795 10.5177 27.2957 10.9927 27.2957 14.9952C27.2945 21.1727 27.412 23.6939 25.5532 25.5614Z" fill="#5F2EEA"/>
<path d="M23.0075 8.7925C24.0009 8.7925 24.8062 7.98718 24.8062 6.99376C24.8062 6.00033 24.0009 5.19501 23.0075 5.19501C22.0141 5.19501 21.2087 6.00033 21.2087 6.99376C21.2087 7.98718 22.0141 8.7925 23.0075 8.7925Z" fill="#5F2EEA"/>
</g>
<defs>
<clipPath id="clip0">
<rect width="30" height="30" fill="white"/>
</clipPath>
</defs>
</svg>
