<svg width="30" height="30" viewBox="0 0 30 30" fill="none" xmlns="http://www.w3.org/2000/svg">
<g clip-path="url(#clip0)">
<path d="M29.9925 30V29.9987H30V18.9962C30 13.6137 28.8413 9.46747 22.5488 9.46747C19.5238 9.46747 17.4938 11.1275 16.665 12.7012H16.5775V9.96997H10.6113V29.9987H16.8238V20.0812C16.8238 17.47 17.3188 14.945 20.5525 14.945C23.7388 14.945 23.7863 17.925 23.7863 20.2487V30H29.9925Z" fill="#5F2EEA"/>
<path d="M0.495003 9.97125H6.715V30H0.495003V9.97125Z" fill="#5F2EEA"/>
<path d="M3.6025 0C1.61375 0 0 1.61375 0 3.6025C0 5.59125 1.61375 7.23875 3.6025 7.23875C5.59125 7.23875 7.205 5.59125 7.205 3.6025C7.20375 1.61375 5.59 0 3.6025 0V0Z" fill="#5F2EEA"/>
</g>
<defs>
<clipPath id="clip0">
<rect width="30" height="30" fill="white"/>
</clipPath>
</defs>
</svg>
