<svg width="669" height="669" viewBox="0 0 669 669" fill="none" xmlns="http://www.w3.org/2000/svg">
<path d="M669 511.651H0V511.986H669V511.651Z" fill="#EBEBEB"/>
<path d="M98.5704 524.389H70.1915V524.724H98.5704V524.389Z" fill="#EBEBEB"/>
<path d="M342.675 520.763H228.985V521.097H342.675V520.763Z" fill="#EBEBEB"/>
<path d="M141.534 536.819H90.5424V537.154H141.534V536.819Z" fill="#EBEBEB"/>
<path d="M601.966 534.571H544.178V534.906H601.966V534.571Z" fill="#EBEBEB"/>
<path d="M539.803 534.571H523.787V534.906H539.803V534.571Z" fill="#EBEBEB"/>
<path d="M496.251 528.925H465.477V529.259H496.251V528.925Z" fill="#EBEBEB"/>
<path d="M450.01 528.925H385.197V529.259H450.01V528.925Z" fill="#EBEBEB"/>
<path d="M317.106 451.977H58.7516C56.7276 451.973 54.7878 451.166 53.3579 449.734C51.9281 448.302 51.125 446.36 51.125 444.337V81.1632C51.1426 79.1508 51.9535 77.2267 53.3814 75.8088C54.8094 74.3908 56.7392 73.5935 58.7516 73.5901H317.106C319.132 73.5901 321.076 74.395 322.508 75.8278C323.941 77.2606 324.746 79.2038 324.746 81.2301V444.337C324.746 446.363 323.941 448.306 322.508 449.739C321.076 451.172 319.132 451.977 317.106 451.977ZM58.7516 73.8577C56.8164 73.8612 54.9616 74.6325 53.5945 76.0021C52.2273 77.3718 51.4595 79.228 51.4595 81.1632V444.337C51.4595 446.272 52.2273 448.128 53.5945 449.498C54.9616 450.867 56.8164 451.638 58.7516 451.642H317.106C319.042 451.638 320.899 450.868 322.268 449.498C323.637 448.129 324.408 446.273 324.411 444.337V81.1632C324.408 79.2267 323.637 77.3706 322.268 76.0013C320.899 74.632 319.042 73.8612 317.106 73.8577H58.7516Z" fill="#EBEBEB"/>
<path d="M606.529 451.977H348.161C346.136 451.973 344.195 451.167 342.763 449.735C341.331 448.303 340.525 446.362 340.521 444.337V81.1632C340.542 79.1496 341.356 77.2255 342.786 75.8079C344.216 74.3904 346.147 73.5935 348.161 73.5901H606.529C608.539 73.5971 610.465 74.3959 611.89 75.8135C613.315 77.2311 614.124 79.1532 614.142 81.1632V444.337C614.142 446.358 613.341 448.297 611.914 449.729C610.487 451.161 608.55 451.969 606.529 451.977ZM348.161 73.8577C346.225 73.8612 344.368 74.632 342.999 76.0013C341.63 77.3706 340.859 79.2267 340.855 81.1632V444.337C340.859 446.273 341.63 448.129 342.999 449.498C344.368 450.868 346.225 451.638 348.161 451.642H606.529C608.465 451.638 610.321 450.868 611.691 449.498C613.06 448.129 613.831 446.273 613.834 444.337V81.1632C613.831 79.2267 613.06 77.3706 611.691 76.0013C610.321 74.632 608.465 73.8612 606.529 73.8577H348.161Z" fill="#EBEBEB"/>
<path d="M557.036 504.801H589.148V306.71H557.036V504.801Z" fill="#F0F0F0"/>
<path d="M381.183 511.625H585.857V504.787H381.183V511.625Z" fill="#F0F0F0"/>
<path d="M557.036 306.697H378.373V504.787H557.036V306.697Z" fill="#F5F5F5"/>
<path d="M551.256 409.856H384.153V445.233H551.256V409.856Z" fill="#F0F0F0"/>
<path d="M551.256 456.151H384.153V491.528H551.256V456.151Z" fill="#F0F0F0"/>
<path d="M399.794 412.532H535.615C536.487 412.532 537.194 411.825 537.194 410.953V409.254C537.194 408.382 536.487 407.675 535.615 407.675H399.794C398.923 407.675 398.216 408.382 398.216 409.254V410.953C398.216 411.825 398.923 412.532 399.794 412.532Z" fill="#F5F5F5"/>
<path d="M399.794 458.827H535.615C536.487 458.827 537.194 458.12 537.194 457.248V455.549C537.194 454.677 536.487 453.97 535.615 453.97H399.794C398.923 453.97 398.216 454.677 398.216 455.549V457.248C398.216 458.12 398.923 458.827 399.794 458.827Z" fill="#F5F5F5"/>
<path d="M551.256 317.628H384.153V353.005H551.256V317.628Z" fill="#F0F0F0"/>
<path d="M551.256 363.548H384.153V398.925H551.256V363.548Z" fill="#F0F0F0"/>
<path d="M399.794 320.304H535.615C536.487 320.304 537.194 319.597 537.194 318.725V317.026C537.194 316.154 536.487 315.447 535.615 315.447H399.794C398.923 315.447 398.216 316.154 398.216 317.026V318.725C398.216 319.597 398.923 320.304 399.794 320.304Z" fill="#F5F5F5"/>
<path d="M399.794 366.238H535.615C536.487 366.238 537.194 365.531 537.194 364.659V362.959C537.194 362.087 536.487 361.381 535.615 361.381H399.794C398.923 361.381 398.216 362.087 398.216 362.959V364.659C398.216 365.531 398.923 366.238 399.794 366.238Z" fill="#F5F5F5"/>
<path d="M490.109 268.938C490.305 271.462 489.748 273.987 488.509 276.195C487.27 278.402 485.405 280.193 483.149 281.341C480.892 282.489 478.346 282.942 475.833 282.643C473.319 282.345 470.95 281.308 469.025 279.663C467.101 278.019 465.707 275.841 465.019 273.405C464.332 270.968 464.382 268.383 465.164 265.975C465.945 263.567 467.423 261.445 469.41 259.877C471.397 258.308 473.804 257.364 476.328 257.164C478.006 257.03 479.694 257.229 481.296 257.749C482.897 258.268 484.38 259.099 485.661 260.193C486.941 261.286 487.992 262.622 488.756 264.122C489.519 265.623 489.979 267.259 490.109 268.938Z" fill="#E0E0E0"/>
<path d="M468.3 277.368C468.455 279.256 468.047 281.148 467.126 282.805C466.206 284.461 464.815 285.807 463.13 286.673C461.444 287.539 459.54 287.886 457.658 287.669C455.775 287.453 453.999 286.683 452.554 285.457C451.109 284.231 450.06 282.604 449.54 280.782C449.02 278.96 449.052 277.025 449.631 275.221C450.211 273.417 451.313 271.825 452.797 270.647C454.282 269.469 456.082 268.758 457.971 268.604C460.502 268.397 463.013 269.203 464.95 270.847C466.887 272.49 468.092 274.836 468.3 277.368Z" fill="#E0E0E0"/>
<path d="M448.654 285.298C453.099 280.056 452.453 272.204 447.212 267.759C441.971 263.314 434.119 263.96 429.674 269.201C425.229 274.443 425.874 282.295 431.116 286.74C436.357 291.185 444.209 290.539 448.654 285.298Z" fill="#E0E0E0"/>
<path d="M501.75 277.367C501.905 279.256 501.497 281.148 500.576 282.804C499.656 284.461 498.265 285.807 496.58 286.673C494.894 287.539 492.99 287.886 491.107 287.669C489.225 287.453 487.449 286.683 486.004 285.457C484.559 284.231 483.51 282.604 482.99 280.782C482.47 278.96 482.502 277.024 483.081 275.22C483.661 273.416 484.763 271.825 486.247 270.647C487.732 269.469 489.532 268.758 491.421 268.604C492.675 268.499 493.937 268.643 495.135 269.027C496.333 269.412 497.444 270.028 498.404 270.842C499.363 271.657 500.153 272.652 500.727 273.772C501.301 274.891 501.649 276.113 501.75 277.367Z" fill="#E0E0E0"/>
<path d="M437.753 277.368C437.909 279.256 437.5 281.148 436.58 282.805C435.66 284.461 434.269 285.807 432.583 286.673C430.898 287.539 428.993 287.886 427.111 287.669C425.228 287.453 423.452 286.683 422.008 285.457C420.563 284.231 419.514 282.604 418.994 280.782C418.473 278.96 418.505 277.025 419.085 275.221C419.665 273.417 420.766 271.825 422.251 270.647C423.735 269.469 425.536 268.758 427.424 268.604C429.956 268.397 432.466 269.203 434.403 270.847C436.34 272.49 437.545 274.836 437.753 277.368Z" fill="#E0E0E0"/>
<path d="M509.069 274.665C509.178 276.002 508.888 277.341 508.237 278.514C507.585 279.686 506.6 280.639 505.407 281.252C504.213 281.864 502.865 282.11 501.532 281.956C500.2 281.803 498.942 281.258 497.919 280.39C496.896 279.523 496.154 278.371 495.785 277.081C495.417 275.791 495.439 274.421 495.849 273.144C496.259 271.867 497.038 270.74 498.088 269.905C499.139 269.071 500.413 268.567 501.75 268.456C502.639 268.381 503.533 268.483 504.383 268.754C505.232 269.026 506.019 269.463 506.699 270.04C507.38 270.617 507.939 271.322 508.346 272.116C508.752 272.91 508.998 273.776 509.069 274.665Z" fill="#E0E0E0"/>
<path d="M528.229 275.2C528.384 277.088 527.976 278.979 527.056 280.635C526.136 282.291 524.746 283.637 523.061 284.503C521.376 285.369 519.473 285.717 517.591 285.501C515.709 285.285 513.933 284.517 512.488 283.292C511.043 282.067 509.993 280.442 509.471 278.621C508.95 276.8 508.98 274.865 509.557 273.061C510.135 271.257 511.235 269.665 512.717 268.486C514.2 267.306 515.999 266.593 517.886 266.436C520.42 266.229 522.932 267.035 524.871 268.678C526.81 270.321 528.018 272.667 528.229 275.2Z" fill="#E0E0E0"/>
<path d="M539.214 277.448C539.214 277.448 537.568 306.696 474.562 306.696C411.555 306.696 409.91 277.448 409.91 277.448H539.214Z" fill="#F0F0F0"/>
<path d="M125.772 246.594H294.025L283.536 511.691H115.282L125.772 246.594Z" fill="#F0F0F0"/>
<path d="M123.337 246.594H291.59L281.1 511.691H112.834L123.337 246.594Z" fill="#F5F5F5"/>
<path d="M163.236 295.19C183.935 265.151 236.05 280.07 243.195 310.322C250.34 340.574 228.477 411.542 184.885 402.417C141.293 393.292 124.635 351.158 163.236 295.19Z" fill="#FAFAFA"/>
<path d="M237.214 463.323C226.59 473.277 207.537 463.015 207.337 450.612C207.136 438.208 221.693 412.385 237.923 419.677C254.153 426.969 257.03 444.791 237.214 463.323Z" fill="#FAFAFA"/>
<path d="M115.617 200.433L562.776 200.433V93.8743L115.617 93.8743V200.433Z" fill="#E6E6E6"/>
<path d="M110.666 200.433L560.461 200.433V93.8743L110.666 93.8743V200.433Z" fill="#F0F0F0"/>
<path d="M115.617 202.868L562.776 202.868V200.433L115.617 200.433V202.868Z" fill="#E6E6E6"/>
<path d="M102.384 202.868L552.179 202.868V200.433L102.384 200.433V202.868Z" fill="#F0F0F0"/>
<path d="M553.504 193.475V100.818L117.61 100.818V193.475L553.504 193.475Z" fill="#FAFAFA"/>
<path d="M278.759 193.475L259.411 100.818H229.213L248.56 193.475H278.759Z" fill="white"/>
<path d="M487.701 193.475L468.367 100.818H438.168L457.516 193.475H487.701Z" fill="white"/>
<path d="M550.293 186.557C550.424 186.557 550.55 186.505 550.643 186.412C550.735 186.32 550.788 186.194 550.788 186.062V105.341C550.784 105.211 550.731 105.087 550.639 104.994C550.547 104.902 550.423 104.849 550.293 104.846C550.161 104.846 550.035 104.898 549.943 104.991C549.85 105.084 549.798 105.209 549.798 105.341V186.062C549.796 186.128 549.807 186.193 549.831 186.254C549.856 186.315 549.892 186.37 549.938 186.416C549.985 186.463 550.04 186.499 550.101 186.523C550.162 186.548 550.227 186.559 550.293 186.557Z" fill="#F0F0F0"/>
<path d="M242.084 193.475L222.737 100.818H210.962L230.31 193.475H242.084Z" fill="white"/>
<path d="M118.493 193.475V100.818H117.61V193.475H118.493Z" fill="#E6E6E6"/>
<path opacity="0.6" d="M109.02 111.295H556.18L556.809 103.521H109.662L109.02 111.295Z" fill="#EBEBEB"/>
<path opacity="0.6" d="M109.02 115.684H556.18L556.809 107.91H109.662L109.02 115.684Z" fill="#EBEBEB"/>
<path opacity="0.6" d="M109.02 120.072H556.18L556.809 112.298H109.662L109.02 120.072Z" fill="#EBEBEB"/>
<path opacity="0.6" d="M109.02 124.461H556.18L556.809 116.687H109.662L109.02 124.461Z" fill="#EBEBEB"/>
<path opacity="0.6" d="M109.02 128.849H556.18L556.809 121.076H109.662L109.02 128.849Z" fill="#EBEBEB"/>
<path opacity="0.6" d="M109.02 133.238H556.18L556.809 125.464H109.662L109.02 133.238Z" fill="#EBEBEB"/>
<path d="M334.5 572.075C477.776 572.075 593.925 565.294 593.925 556.929C593.925 548.564 477.776 541.783 334.5 541.783C191.224 541.783 75.0752 548.564 75.0752 556.929C75.0752 565.294 191.224 572.075 334.5 572.075Z" fill="#F5F5F5"/>
<path d="M487.219 556.929H314.269C311.735 556.943 309.224 556.44 306.89 555.451C304.556 554.463 302.449 553.008 300.696 551.178C298.943 549.347 297.581 547.178 296.694 544.804C295.807 542.43 295.414 539.899 295.537 537.368L311.259 168.668C311.537 163.428 313.8 158.489 317.587 154.856C321.374 151.223 326.402 149.167 331.65 149.107H504.6C507.135 149.091 509.647 149.592 511.982 150.581C514.316 151.569 516.425 153.023 518.178 154.854C519.932 156.685 521.293 158.855 522.179 161.23C523.065 163.605 523.458 166.136 523.332 168.668L507.61 537.368C507.329 542.607 505.065 547.544 501.279 551.176C497.492 554.809 492.466 556.865 487.219 556.929Z" fill="#00BA88"/>
<path d="M515.96 295.926H514.769C514.2 295.928 513.637 295.815 513.114 295.593C512.591 295.371 512.118 295.044 511.725 294.634C511.332 294.223 511.027 293.737 510.828 293.204C510.629 292.672 510.54 292.105 510.567 291.537L513.524 222.229C513.589 221.053 514.097 219.946 514.947 219.132C515.796 218.317 516.923 217.855 518.1 217.84H519.291C519.859 217.837 520.421 217.951 520.944 218.173C521.466 218.395 521.938 218.722 522.33 219.132C522.722 219.543 523.026 220.03 523.224 220.562C523.421 221.094 523.508 221.661 523.479 222.229L520.536 291.537C520.471 292.712 519.963 293.819 519.113 294.634C518.264 295.449 517.137 295.91 515.96 295.926Z" fill="#00BA88"/>
<path d="M307.017 244.573H304.007C303.557 244.577 303.112 244.49 302.698 244.315C302.283 244.14 301.909 243.883 301.598 243.558C301.287 243.233 301.046 242.849 300.89 242.427C300.733 242.006 300.665 241.557 300.689 241.108L301.532 221.319C301.579 220.388 301.979 219.511 302.65 218.865C303.321 218.219 304.213 217.852 305.144 217.84H308.155C308.606 217.838 309.052 217.927 309.467 218.103C309.882 218.279 310.257 218.537 310.569 218.863C310.88 219.189 311.122 219.574 311.28 219.996C311.438 220.419 311.508 220.868 311.486 221.319L310.643 241.108C310.593 242.038 310.189 242.914 309.516 243.558C308.842 244.201 307.949 244.564 307.017 244.573Z" fill="#263238"/>
<path d="M305.519 279.923H302.495C302.046 279.925 301.601 279.836 301.188 279.661C300.775 279.486 300.401 279.228 300.091 278.904C299.78 278.58 299.539 278.195 299.382 277.775C299.225 277.354 299.155 276.906 299.177 276.458L300.02 256.655C300.07 255.727 300.472 254.853 301.142 254.21C301.813 253.567 302.703 253.202 303.632 253.19H306.656C307.105 253.187 307.55 253.277 307.963 253.452C308.377 253.627 308.75 253.885 309.06 254.209C309.371 254.533 309.612 254.917 309.769 255.338C309.926 255.759 309.996 256.207 309.974 256.655L309.131 276.458C309.081 277.385 308.679 278.26 308.009 278.903C307.338 279.546 306.448 279.911 305.519 279.923Z" fill="#263238"/>
<path d="M482.563 556.929H309.613C307.077 556.947 304.565 556.447 302.229 555.459C299.894 554.472 297.784 553.018 296.031 551.186C294.277 549.355 292.915 547.184 292.03 544.808C291.145 542.432 290.754 539.9 290.881 537.368L306.589 168.668C306.868 163.428 309.13 158.489 312.917 154.856C316.705 151.223 321.733 149.167 326.98 149.107H499.944C502.479 149.091 504.991 149.592 507.325 150.581C509.66 151.569 511.768 153.023 513.522 154.854C515.275 156.685 516.637 158.855 517.523 161.23C518.409 163.605 518.801 166.136 518.676 168.668L502.954 537.368C502.676 542.608 500.413 547.547 496.626 551.18C492.839 554.813 487.811 556.869 482.563 556.929Z" fill="#263238"/>
<path opacity="0.6" d="M482.563 556.929H309.613C307.077 556.947 304.565 556.447 302.229 555.459C299.894 554.472 297.784 553.018 296.031 551.186C294.277 549.355 292.915 547.184 292.03 544.808C291.145 542.432 290.754 539.9 290.881 537.368L306.589 168.668C306.868 163.428 309.13 158.489 312.917 154.856C316.705 151.223 321.733 149.167 326.98 149.107H499.944C502.479 149.091 504.991 149.592 507.325 150.581C509.66 151.569 511.768 153.023 513.522 154.854C515.275 156.685 516.637 158.855 517.523 161.23C518.409 163.605 518.801 166.136 518.676 168.668L502.954 537.368C502.676 542.608 500.413 547.547 496.626 551.18C492.839 554.813 487.811 556.869 482.563 556.929Z" fill="#00BA88"/>
<path opacity="0.5" d="M410.311 532.056C410.131 535.586 408.609 538.914 406.058 541.361C403.507 543.808 400.118 545.189 396.583 545.222C394.876 545.237 393.185 544.902 391.612 544.239C390.039 543.575 388.62 542.596 387.44 541.362C386.26 540.129 385.346 538.667 384.753 537.066C384.16 535.465 383.901 533.76 383.993 532.056C384.17 528.528 385.689 525.201 388.238 522.756C390.788 520.311 394.175 518.933 397.707 518.903C399.413 518.888 401.105 519.222 402.677 519.885C404.249 520.548 405.669 521.525 406.85 522.757C408.03 523.989 408.946 525.45 409.542 527.049C410.137 528.648 410.399 530.352 410.311 532.056Z" fill="#00BA88"/>
<path opacity="0.8" d="M494.966 509.056H301.277C300.69 509.06 300.107 508.944 299.566 508.715C299.025 508.486 298.536 508.149 298.13 507.724C297.724 507.299 297.409 506.796 297.205 506.245C297.001 505.694 296.911 505.107 296.942 504.52L310.416 188.658C310.474 187.442 310.996 186.294 311.874 185.45C312.753 184.606 313.921 184.131 315.139 184.122H508.815C509.403 184.116 509.987 184.23 510.53 184.459C511.073 184.687 511.563 185.024 511.971 185.449C512.378 185.874 512.694 186.378 512.899 186.93C513.104 187.482 513.194 188.07 513.163 188.658L499.703 504.52C499.641 505.738 499.117 506.886 498.236 507.729C497.355 508.572 496.185 509.047 494.966 509.056Z" fill="white"/>
<path opacity="0.5" d="M375.081 166.447C375.15 165.015 375.763 163.663 376.795 162.668C377.827 161.673 379.201 161.111 380.634 161.095C381.327 161.089 382.014 161.224 382.653 161.494C383.291 161.764 383.867 162.162 384.345 162.664C384.823 163.166 385.193 163.761 385.431 164.412C385.67 165.062 385.772 165.755 385.732 166.447C385.667 167.88 385.055 169.234 384.022 170.23C382.989 171.225 381.614 171.787 380.179 171.799C379.486 171.806 378.799 171.67 378.161 171.4C377.522 171.13 376.946 170.732 376.468 170.23C375.99 169.728 375.62 169.133 375.382 168.483C375.143 167.832 375.041 167.139 375.081 166.447Z" fill="#00BA88"/>
<path opacity="0.5" d="M399.045 161.109H443.333C444.025 161.106 444.71 161.244 445.347 161.516C445.983 161.787 446.558 162.185 447.035 162.686C447.512 163.187 447.882 163.781 448.122 164.43C448.362 165.079 448.467 165.77 448.431 166.461C448.362 167.893 447.75 169.245 446.717 170.24C445.685 171.234 444.312 171.797 442.878 171.813H398.59C397.898 171.817 397.212 171.68 396.574 171.41C395.937 171.139 395.361 170.741 394.884 170.239C394.406 169.738 394.036 169.144 393.797 168.494C393.558 167.844 393.454 167.152 393.492 166.461C393.564 165.03 394.178 163.68 395.209 162.685C396.241 161.691 397.612 161.127 399.045 161.109Z" fill="#00BA88"/>
<path d="M459.828 421.49C492.895 389.12 494.557 337.194 463.542 305.511C432.526 273.828 380.577 274.384 347.51 306.754C314.443 339.125 312.78 391.05 343.796 422.733C374.812 454.417 426.761 453.86 459.828 421.49Z" fill="white"/>
<path d="M417.764 350.891H419.035L421.952 349.419H424.226L426.18 350.329H428.321L429.137 349.86L429.19 348.536L428.013 347.987L426.354 346.261L426.421 344.602H425.096L423.972 345.686L422.487 344.12H420.761L417.938 348.79L418.553 349.914L417.617 350.529L417.764 350.891Z" fill="#00BA88"/>
<path d="M434.904 352.148L434.837 353.767L436.268 355.279H439.225L439.346 352.188H438.69L438.81 349.285L437.593 348.014L437.673 346.007H438.944L439.025 344.241L437.178 343.987L434.061 346.984L433.994 348.643L435.706 350.449L435.666 351.412L434.904 352.148Z" fill="#00BA88"/>
<path d="M333.229 396.048L327.877 390.455L328.051 386.334L332.493 382.08L332.587 379.952L330.339 377.597H325.897L325.99 375.323L321.789 373.302C322.724 387.27 327.38 400.732 335.276 412.292L336.989 402.31L333.135 398.296L333.229 396.048Z" fill="#00BA88"/>
<path d="M485.614 365.274L481.172 367.254H479.606L477.947 368.847V370.265L480.168 372.58L480.048 375.456L476.582 377.664V376.794L474.107 374.199H472.595L472.448 377.477L475.124 381.129L475.03 383.203L475.699 383.899H474.749L472.876 381.491L472.943 379.724L471.685 378.106L471.846 374.346L471.043 370.586H470.588L469.732 371.416H468.942L469.049 368.98L467.283 367.134V365.796H466.962L465.945 366.773H463.885L458.305 372.125L458.171 375.149L456.512 378.052L455.415 377.557L453.756 373.476L452.833 368.218L451.026 367.522L448.029 362.866H441.179L440.563 362.157H437.887L435.854 360.752L435.292 358.932H433.954L433.325 359.4L434.569 362.839L436.723 365.515L439.038 363.294H439.64L439.975 364.297L442.062 366.144L440.456 368.03L440.175 369.168L436.014 372.205L428.789 374.587L428.401 370.492L425.952 367.361L424.614 363.642L421.938 359.936V360.805L424.333 369.93L428.695 376.727L433.512 375.978L433.378 378.935L430.836 382.802L423.852 389.184L423.718 392.328L424.922 397.774L420.467 402.578L420.319 405.896L416.172 410.994V412.144L410.632 415.289H408.023L407.22 413.87L404.076 400.062L404.21 396.878L404.906 395.901L405.026 393.024L402.109 386.12L402.189 384.287L402.858 383.859V382.12L402.363 381.29H399.794L398.604 379.698H395.352L391.057 380.46H385.866L381.557 373.302L381.865 366.117L391.298 354.53L397.078 352.938H403.313L403.742 356.015L409.99 358.691L411.435 357.353H414.78L415.784 358.397H421.671L423.611 355.038L423.691 353.446L423.25 352.978H422.594L422.112 353.433H421.082L420.574 352.911H419.677L419.142 353.433H418.446L417.884 352.831L416.626 351.493L416.733 348.817H414.78L413.897 349.272L414.218 351.359L413.362 351.734V352.737L412.746 352.416L411.234 349.218V347.706L409.254 346.368L406.859 343.866H405.869V345.03L407.207 346.167L407.314 347.051L410.298 349.325L410.003 349.954L409.87 349.325H409.107L409.227 350.302L407.782 351.787L407.341 352.857L406.083 351.519H407.689L408.398 350.85V349.593L404.384 346.462L404.049 345.378H402.644L401.186 346.489H400.062L399.246 346.114L397.908 346.943V347.773L395.727 349.874V350.957L393.974 352.791H392.302L391.606 353.232H390.763L390.388 352.63L388.515 352.255L388.622 349.78L389.773 348.683V346.542H394.978L395.272 343.344L393.091 341.284L401.547 335.718L403.755 334.794L403.889 331.864L405.066 330.727L404.906 334.473L409.308 333.871H413.161L413.281 331.008L414.191 330.138L414.753 330.727H415.516L415.61 328.426H418.567L419.664 327.382H414.78L413.79 326.352L413.91 323.809L416.72 321.133V319.795H414.78L409.696 324.666L409.428 331.557L407.087 332.426L405.749 328.961L402.725 330.152L401.587 328.961L401.721 325.709L410.445 315.42L419.985 312.61L428.16 317.106L426.635 318.565H421.604L425.618 322.793L430.274 320.117L446.678 315.032L465.062 307.285C457.674 299.305 448.704 292.953 438.725 288.633C428.745 284.314 417.974 282.122 407.1 282.198C394.361 282.207 381.792 285.117 370.345 290.707L374.158 290.306L386.2 293.852L379.51 313.922L370.613 317.534L364.578 320.491L362.397 327.422L357.567 325.616L354.209 318.11L355.172 315.808L352.496 304.395L350.543 303.98C347.13 307.016 343.958 310.313 341.056 313.841L345.498 317.855L343.036 324.733L337.457 321.053L338.675 318.538L337.952 317.788C334.173 322.966 330.982 328.549 328.439 334.433L331.115 336.025L334.433 332.854L334.768 324.733L345.472 329.536L351.064 336.534L348.536 338.956H343.451L344.869 343.679L330.151 357.54L331.864 361.822L330.82 362.826L327.69 359.547H322.03C321.883 361.073 321.762 362.625 321.695 364.177C321.628 365.729 321.615 367.562 321.695 369.235H321.909L323.609 367.616H326.097L324.759 368.954L324.612 372.419H327.636L328.599 376.165H331.021L333.389 378.654L335.958 376.139L351.171 381.839L352.817 385.518L358.397 388.194L361.929 388.408L365.756 391.726L362.036 397.64L359.949 404.424L354.369 406.592L342.193 421.002C353.236 433.033 367.793 441.273 383.792 444.551L385.023 443.962L396.583 443.146L404.424 442.49L406.939 441.152L413.415 441.38L418.245 442.718L417.095 443.146L419.008 444.096C433.266 440.738 446.446 433.838 457.328 424.034C468.211 414.23 476.444 401.838 481.265 388.007L479.66 385.036L482.898 382.922C484.439 377.155 485.35 371.238 485.614 365.274ZM442.062 305.466L449.1 302.977H452.244L442.972 307.084L440.991 310.416L442.891 312.744L440.416 312.423L439.078 310.202L442.062 305.466ZM418.714 297.103L416.586 298.053L412.158 296.581L418.714 297.103ZM410.217 297.103L414.941 299.19L417.255 300.702L414.579 301.13L414.004 299.618L412.505 299.244L410.458 302.763L407.421 298.909L407.046 297.571L410.217 297.103ZM334.942 368.726L333.604 368.418L328.118 366.184L329.335 365.662L335.035 367.616L334.942 368.726ZM338.661 370.158H335.744L336.561 368.726L339.812 369.061L338.661 370.158ZM391.833 330.245L393.412 329.483L394.75 332.226L397.212 336.949L392.302 338.902L393.332 334.192L391.592 332.48L391.833 330.245ZM388.809 333.844H391.485L390.87 336.868H388.435L388.809 333.844ZM382.989 322.298L381.812 322.659L379.658 322.217L379.203 320.973L379.738 320.384L384.193 319.354L386.428 320.384L385.986 321.214L383.618 321.522L382.989 322.298ZM431.906 402.939L429.618 407.02H428.066L427.411 406.337L427.545 403.34L428.334 402.578L427.852 402.069L427.986 399.393L431.037 397.828L432.254 395.954L432.575 398.015L431.906 402.939ZM476.689 389.974H475.11L471.444 384.622L469.156 381.103L471.043 381.263L476.783 387.712L476.689 389.974Z" fill="#00BA88"/>
<path opacity="0.3" d="M433.98 413.696L425.631 442.156C429.234 441.022 432.753 439.636 436.161 438.008L433.98 413.696Z" fill="#263238"/>
<path opacity="0.9" d="M390.87 224.209C391.352 212.702 400.437 203.376 411.154 203.376C421.871 203.376 430.154 212.742 429.672 224.209C428.775 245.188 408.879 256.883 408.879 256.883C408.879 256.883 389.973 245.188 390.87 224.209Z" fill="#00BA88"/>
<path d="M475.191 456.74L433.98 413.683L431.304 474.562L445.862 460.607L450.143 472.113C450.385 472.722 450.746 473.276 451.206 473.742C451.666 474.208 452.215 474.577 452.821 474.827C453.426 475.076 454.076 475.202 454.731 475.195C455.385 475.189 456.032 475.051 456.633 474.789C457.891 474.289 458.907 473.322 459.471 472.091C460.034 470.86 460.1 469.459 459.657 468.18L455.375 456.673L475.191 456.74Z" fill="white"/>
<path d="M211.725 202.439C209.25 209.277 206.748 216.248 204.366 223.138C203.149 226.59 201.998 230.042 200.887 233.481C199.777 236.92 198.747 240.345 197.904 243.663C197.475 245.309 197.114 246.941 196.887 248.373C196.766 249.095 196.726 249.711 196.673 250.193C196.619 250.674 196.673 251.531 196.673 252.226C196.973 255.551 197.528 258.848 198.332 262.087C199.951 268.965 202.038 276.07 204.099 283.067L196.954 286.426C192.802 279.915 189.26 273.035 186.37 265.874C184.801 262.06 183.605 258.104 182.798 254.059C182.582 252.896 182.435 251.721 182.356 250.541C182.293 249.291 182.32 248.039 182.436 246.794C182.637 244.52 182.958 242.486 183.319 240.506C184.891 232.931 186.878 225.449 189.274 218.094C191.575 210.869 194.05 203.818 196.847 196.686L211.725 202.439Z" fill="#B55B52"/>
<path d="M201.904 279.642L207.858 287.322L196.887 292.514C196.887 292.514 193.756 287.456 195.642 282.719L201.904 279.642Z" fill="#B55B52"/>
<path d="M211.498 293.945L203.497 298.936L196.887 292.5L207.858 287.309L211.498 293.945Z" fill="#B55B52"/>
<path d="M249.764 152.064C249.671 152.907 250.032 153.629 250.594 153.696C251.156 153.763 251.664 153.121 251.758 152.278C251.852 151.435 251.477 150.712 250.929 150.646C250.38 150.579 249.858 151.194 249.764 152.064Z" fill="#263238"/>
<path d="M249.965 153.629C250.684 156.312 251.769 158.883 253.19 161.269C252.57 161.619 251.881 161.829 251.171 161.884C250.462 161.94 249.749 161.839 249.082 161.59L249.965 153.629Z" fill="#A02724"/>
<path d="M247.196 147.046C247.076 147.01 246.975 146.928 246.915 146.819C246.881 146.762 246.86 146.699 246.851 146.633C246.843 146.568 246.847 146.502 246.865 146.438C246.882 146.375 246.912 146.315 246.953 146.263C246.994 146.212 247.044 146.168 247.102 146.136C247.781 145.733 248.547 145.497 249.336 145.448C250.125 145.399 250.914 145.539 251.638 145.855C251.754 145.92 251.84 146.027 251.88 146.154C251.92 146.281 251.91 146.418 251.852 146.538C251.789 146.653 251.685 146.739 251.56 146.779C251.436 146.819 251.3 146.809 251.183 146.752C250.606 146.504 249.978 146.398 249.352 146.442C248.726 146.486 248.12 146.68 247.584 147.006C247.525 147.039 247.46 147.059 247.394 147.066C247.327 147.073 247.26 147.066 247.196 147.046Z" fill="#263238"/>
<path d="M222.737 158.299C224.249 165.979 225.747 180.068 220.369 185.193C220.369 185.193 222.483 192.993 236.759 192.993C252.467 192.993 244.265 185.193 244.265 185.193C235.689 183.145 235.916 176.79 237.401 170.809L222.737 158.299Z" fill="#B55B52"/>
<path d="M215.833 189.153C214.415 188.217 216.261 183.306 217.679 182.463C221.439 180.189 238.111 179.426 245.055 183.801C245.693 184.602 246.145 185.536 246.376 186.533C246.608 187.531 246.613 188.568 246.393 189.568L215.833 189.153Z" fill="#263238"/>
<path d="M177.031 545.396C177.46 545.527 177.911 545.57 178.357 545.521C178.804 545.473 179.235 545.335 179.627 545.115C179.777 544.965 179.876 544.772 179.909 544.563C179.943 544.354 179.909 544.14 179.814 543.951C179.762 543.792 179.675 543.647 179.559 543.526C179.443 543.406 179.302 543.313 179.145 543.255C177.686 542.653 174.502 544.138 174.368 544.205C174.324 544.224 174.286 544.255 174.26 544.296C174.233 544.337 174.22 544.384 174.221 544.432C174.223 544.48 174.238 544.526 174.264 544.566C174.29 544.606 174.326 544.638 174.368 544.66C175.228 544.997 176.12 545.244 177.031 545.396ZM178.65 543.63L178.944 543.71C179.036 543.748 179.119 543.804 179.188 543.875C179.257 543.947 179.311 544.032 179.346 544.125C179.506 544.566 179.346 544.713 179.346 544.753C178.81 545.262 176.67 544.927 175.184 544.406C176.27 543.9 177.452 543.635 178.65 543.63Z" fill="#00BA88"/>
<path d="M174.435 544.673H174.556C175.72 544.272 178.168 542.345 178.141 541.154C178.137 540.965 178.066 540.784 177.942 540.642C177.817 540.5 177.646 540.406 177.459 540.378C177.276 540.323 177.084 540.308 176.894 540.333C176.705 540.358 176.524 540.424 176.362 540.525C175.024 541.301 174.261 544.258 174.234 544.379C174.221 544.421 174.22 544.466 174.232 544.509C174.244 544.552 174.268 544.59 174.301 544.62C174.34 544.65 174.386 544.669 174.435 544.673ZM177.218 540.82H177.325C177.633 540.9 177.646 541.061 177.646 541.114C177.646 541.823 176.054 543.322 174.85 543.951C175.12 542.784 175.735 541.725 176.616 540.913C176.798 540.807 177.013 540.773 177.218 540.82Z" fill="#00BA88"/>
<path d="M248.319 546.734C249.657 546.734 250.995 546.546 251.41 545.944C251.521 545.785 251.58 545.596 251.58 545.402C251.58 545.209 251.521 545.02 251.41 544.86C251.326 544.714 251.212 544.586 251.076 544.485C250.941 544.383 250.786 544.311 250.621 544.272C248.881 543.803 245.269 545.891 245.055 545.984C245.009 546.007 244.972 546.045 244.951 546.091C244.929 546.137 244.923 546.189 244.934 546.239C244.939 546.288 244.96 546.334 244.994 546.37C245.028 546.407 245.073 546.431 245.122 546.439C246.177 546.63 247.247 546.729 248.319 546.734ZM249.992 544.7C250.152 544.679 250.314 544.679 250.474 544.7C250.574 544.721 250.668 544.763 250.751 544.823C250.834 544.883 250.904 544.959 250.955 545.048C251.129 545.355 251.062 545.516 250.955 545.596C250.46 546.279 247.811 546.292 245.858 546.025C247.135 545.315 248.54 544.865 249.992 544.7Z" fill="#00BA88"/>
<path d="M245.148 546.453H245.255C246.513 545.877 249.029 543.616 248.841 542.439C248.841 542.158 248.6 541.81 247.905 541.743C247.664 541.722 247.422 541.749 247.193 541.823C246.963 541.896 246.75 542.015 246.567 542.171C245.229 543.268 244.948 546.091 244.934 546.185C244.933 546.229 244.942 546.272 244.961 546.311C244.98 546.351 245.007 546.385 245.041 546.412C245.074 546.433 245.11 546.447 245.148 546.453ZM247.717 542.184H247.865C248.306 542.184 248.333 542.398 248.346 542.465C248.467 543.175 246.754 544.954 245.456 545.744C245.557 544.548 246.024 543.413 246.794 542.492C247.052 542.277 247.382 542.167 247.717 542.184Z" fill="#00BA88"/>
<path d="M233.588 546.198H244.105L245.148 521.86H234.645L233.588 546.198Z" fill="#B55B52"/>
<path d="M162.701 542.466L173.191 544.178L180.643 521.031L170.14 519.318L162.701 542.466Z" fill="#B55B52"/>
<path d="M173.94 543.094L162.286 541.181C162.08 541.145 161.867 541.181 161.684 541.283C161.501 541.386 161.36 541.548 161.283 541.743L157.723 550.614C157.639 550.83 157.603 551.063 157.62 551.295C157.637 551.526 157.706 551.751 157.822 551.953C157.937 552.155 158.097 552.328 158.288 552.46C158.479 552.591 158.698 552.678 158.928 552.714C162.942 553.303 165.029 553.397 170.14 554.24C173.298 554.762 181.326 556.635 185.728 556.916C190.13 557.197 190.986 552.902 189.207 552.367C181.246 550.079 177.686 546.734 175.506 544.017C175.116 543.526 174.558 543.197 173.94 543.094Z" fill="#263238"/>
<path d="M244.038 544.981H232.558C232.348 544.98 232.144 545.051 231.981 545.182C231.817 545.314 231.705 545.498 231.661 545.704L229.587 555.069C229.537 555.295 229.538 555.528 229.591 555.753C229.643 555.978 229.746 556.187 229.892 556.366C230.038 556.545 230.222 556.689 230.431 556.787C230.64 556.884 230.869 556.933 231.099 556.929C235.234 556.862 241.215 556.622 246.419 556.622C252.507 556.622 255.076 556.956 262.208 556.956C266.516 556.956 267.72 552.594 265.914 552.193C257.685 550.4 253.671 550.213 246.567 545.824C245.816 545.318 244.942 545.026 244.038 544.981Z" fill="#263238"/>
<path d="M201.556 187.574C191.963 190.732 186.21 216.515 186.21 216.515L207.283 229.695C211.877 223.787 214.86 216.789 215.94 209.384C218.094 195.95 211.404 184.336 201.556 187.574Z" fill="#00BA88"/>
<g opacity="0.4">
<path opacity="0.4" d="M201.556 187.574C191.963 190.732 186.21 216.515 186.21 216.515L207.283 229.695C211.877 223.787 214.86 216.789 215.94 209.384C218.094 195.95 211.404 184.336 201.556 187.574Z" fill="white"/>
</g>
<path opacity="0.2" d="M207.31 214.602C204.914 218.298 203.335 222.463 202.68 226.818L207.283 229.695C211.248 224.613 213.994 218.69 215.311 212.381L207.31 214.602Z" fill="black"/>
<path d="M260.428 188.109C260.428 188.109 271.614 200.74 261.044 278.933H204.848C204.46 270.303 209.879 228.223 201.556 187.574C207.769 186.373 214.053 185.578 220.369 185.193C228.328 184.731 236.307 184.731 244.265 185.193C249.72 185.745 255.124 186.72 260.428 188.109Z" fill="#00BA88"/>
<g opacity="0.4">
<path opacity="0.4" d="M260.428 188.109C260.428 188.109 271.614 200.74 261.044 278.933H204.848C204.46 270.303 209.879 228.223 201.556 187.574C207.769 186.373 214.053 185.578 220.369 185.193C228.328 184.731 236.307 184.731 244.265 185.193C249.72 185.745 255.124 186.72 260.428 188.109Z" fill="white"/>
</g>
<path opacity="0.2" d="M265.339 212.006L265.125 211.819L252.347 214.883C251.624 223.526 260.509 233.842 265.085 238.565C265.651 229.724 265.736 220.857 265.339 212.006Z" fill="black"/>
<path opacity="0.2" d="M245.148 521.874L244.613 534.411H234.096L234.632 521.874H245.148Z" fill="black"/>
<path opacity="0.2" d="M170.14 519.318L180.643 521.044L176.79 532.966L166.3 531.253L170.14 519.318Z" fill="black"/>
<path d="M221.854 147.18C221.359 157.59 220.516 163.664 225.172 169.551C232.143 178.409 245.443 175.077 249.042 165.016C252.293 155.971 252.574 140.45 242.901 135.218C240.773 134.053 238.382 133.451 235.956 133.47C233.53 133.489 231.149 134.128 229.04 135.327C226.931 136.526 225.163 138.244 223.905 140.319C222.647 142.394 221.941 144.756 221.854 147.18Z" fill="#B55B52"/>
<path d="M241.201 156.319C236.973 162.795 239.341 164.949 236.973 167.919C234.605 170.889 218.75 175.131 218.602 167.625C218.676 164.944 218.132 162.282 217.011 159.846C215.891 157.409 214.224 155.264 212.14 153.576C211.229 152.678 210.541 151.579 210.132 150.367C209.724 149.155 209.605 147.863 209.786 146.597C209.967 145.331 210.442 144.125 211.174 143.076C211.906 142.027 212.874 141.164 214 140.557C219.646 137.439 211.605 135.914 215.057 130.897C220.195 123.457 227.219 121.009 233.093 126.147C238.967 131.285 248.493 134.175 255.331 127.632C262.168 121.089 260.977 146.605 243.958 145.441C251.276 152.76 239.047 149.187 241.201 156.319Z" fill="#263238"/>
<path d="M217.572 137.975C214.803 139.915 210.748 133.466 211.712 129.947C208.206 133.961 209.036 140.544 216.207 140.651C223.379 140.758 217.572 137.975 217.572 137.975Z" fill="#263238"/>
<path d="M237.816 151.408C237.536 153.984 238.115 156.58 239.462 158.794C241.268 161.697 243.904 160.573 244.814 157.63C245.67 154.954 245.764 150.257 243.262 148.384C240.76 146.511 238.164 148.317 237.816 151.408Z" fill="#B55B52"/>
<path d="M241.108 278.933C241.108 278.933 229.186 359.213 222.643 389.304C215.418 422.246 182.262 531.186 182.262 531.186L163.53 527.172C163.53 527.172 185.166 438.356 191.187 392.302C195.803 356.925 204.915 278.933 204.915 278.933H241.108Z" fill="#263238"/>
<path d="M186.771 524.964C186.852 524.964 183.266 531.761 183.266 531.761L162.099 527.172L163.892 520.803L186.771 524.964Z" fill="#00BA88"/>
<path opacity="0.3" d="M233.575 307.539C219.793 310.215 221.252 361.661 222.871 388.1C226.885 369.368 232.665 333.443 236.639 307.914C235.688 307.449 234.609 307.317 233.575 307.539Z" fill="black"/>
<path d="M261.044 278.933C261.044 278.933 265.419 357.487 264.268 389.532C263.078 422.808 248.52 531.989 248.52 531.989H230.725C230.725 531.989 232.986 424.802 232.197 392.074C231.327 356.39 220.636 278.933 220.636 278.933H261.044Z" fill="#263238"/>
<path d="M251.945 524.897C252.026 524.897 250.942 532.283 250.942 532.283H229.293L228.704 525.687L251.945 524.897Z" fill="#00BA88"/>
<path d="M266.142 198.76C269.152 205.744 272.43 212.943 275.829 219.86C279.09 226.714 282.772 233.358 286.854 239.756C287.857 241.282 288.888 242.74 289.945 244.105L290.748 245.095C291.015 245.403 291.095 245.536 291.363 245.817C291.818 246.326 292.447 246.888 293.062 247.463C295.631 249.791 298.762 252.079 301.866 254.367C308.128 258.903 314.698 263.399 321.133 267.961L317.508 274.972C309.875 272.144 302.437 268.814 295.243 265.004C291.472 263.047 287.834 260.843 284.352 258.408C283.368 257.703 282.422 256.948 281.515 256.147C281.06 255.745 280.472 255.157 280.057 254.742L278.893 253.471C277.394 251.785 276.016 250.086 274.705 248.36C269.814 241.599 265.448 234.473 261.646 227.045C259.773 223.406 257.94 219.767 256.294 216.047C254.648 212.327 252.882 208.728 251.384 204.714L266.142 198.76Z" fill="#B55B52"/>
<path d="M245.095 198.613C236.987 210.655 255.973 232.504 255.973 232.504L277.207 217.786C275.728 210.32 273.305 203.072 269.995 196.218C263.078 181.674 251.276 189.474 245.095 198.613Z" fill="#00BA88"/>
<g opacity="0.4">
<path opacity="0.4" d="M245.095 198.613C236.987 210.655 255.973 232.504 255.973 232.504L277.207 217.786C275.728 210.32 273.305 203.072 269.995 196.218C263.078 181.674 251.276 189.474 245.095 198.613Z" fill="white"/>
</g>
<path d="M314.751 266.556L327.81 268.403L324.398 279.374C324.398 279.374 315.126 279.374 312.356 272.23L314.751 266.556Z" fill="#B55B52"/>
<path d="M331.864 271.908L329.041 280.9L324.358 279.374L327.77 268.403L331.864 271.908Z" fill="#B55B52"/>
</svg>
