<?xml version="1.0" standalone="no"?>
<!DOCTYPE svg PUBLIC "-//W3C//DTD SVG 20010904//EN"
 "http://www.w3.org/TR/2001/REC-SVG-20010904/DTD/svg10.dtd">
<svg version="1.0" xmlns="http://www.w3.org/2000/svg"
 width="500.000000pt" height="500.000000pt" viewBox="0 0 500.000000 500.000000"
 preserveAspectRatio="xMidYMid meet">
<metadata>
Created by potrace 1.11, written by Peter Selinger 2001-2013
</metadata>
<g transform="translate(0.000000,500.000000) scale(0.100000,-0.100000)"
fill="#000000" stroke="none">
<path d="M2110 4874 c-522 -34 -871 -243 -1173 -704 -81 -124 -193 -328 -264
-480 -109 -230 -208 -446 -249 -540 -17 -41 -75 -169 -128 -284 -136 -295
-184 -448 -206 -657 -24 -223 30 -458 149 -653 271 -441 871 -789 1921 -1110
345 -106 373 -111 620 -110 159 0 214 4 300 22 485 100 956 410 1326 872 268
335 463 747 520 1099 18 112 18 348 0 444 -33 169 -105 305 -252 472 -53 61
-164 191 -247 290 -339 404 -541 624 -722 784 -192 170 -326 263 -506 353
-184 92 -386 155 -586 183 -103 14 -401 26 -503 19z m207 -1140 c152 -73 243
-232 243 -424 0 -193 -90 -349 -245 -426 -67 -33 -82 -37 -155 -37 -73 0 -88
4 -155 37 -155 77 -245 233 -245 426 0 184 87 343 229 419 115 61 210 62 328
5z m868 -139 c165 -43 271 -183 282 -375 13 -206 -96 -399 -275 -488 -71 -34
-82 -37 -166 -37 -78 0 -99 4 -148 27 -154 72 -239 231 -225 419 17 220 166
408 362 455 69 17 101 17 170 -1z m-1730 -409 c244 -120 311 -471 123 -641
-216 -194 -566 16 -568 341 0 103 45 202 121 268 85 72 215 85 324 32z m2371
-384 c64 -33 128 -111 148 -180 20 -73 20 -121 1 -197 -31 -120 -119 -226
-233 -282 -51 -25 -68 -28 -157 -28 -116 0 -156 16 -219 85 -169 187 -57 513
209 612 68 25 193 20 251 -10z m-1195 -72 c120 -41 199 -89 289 -180 73 -72
117 -133 288 -398 112 -172 213 -334 225 -360 18 -39 22 -65 22 -157 0 -104
-2 -114 -32 -176 -62 -125 -181 -214 -321 -239 -82 -14 -131 -6 -281 47 -155
55 -260 73 -418 73 -148 0 -284 -25 -415 -75 -105 -41 -196 -59 -252 -50 -220
34 -373 194 -384 400 -7 129 10 163 251 535 231 356 300 439 427 512 174 101
419 129 601 68z"/>
</g>
</svg>
